<svg width="1440" height="960" viewBox="0 0 1440 960" fill="none" xmlns="http://www.w3.org/2000/svg">
<g clip-path="url(#clip0_19_714)">
<mask id="mask0_19_714" style="mask-type:luminance" maskUnits="userSpaceOnUse" x="0" y="0" width="1440" height="960">
<path d="M1440 0H0V960H1440V0Z" fill="white"/>
</mask>
<g mask="url(#mask0_19_714)">
<path d="M1470.6 577.06L1465.84 698.539L1463.04 770.042H-17.3376L-15.84 580.019C-15.84 580.019 98.64 557.699 106.063 554.754C113.486 551.809 152.143 544.35 152.143 544.35C152.143 544.35 353.801 592.331 439.358 610.418L439.668 610.475C459.367 614.644 472.846 617.193 476.186 617.193C494.021 617.193 776.426 584.497 789.818 583C803.21 581.502 974.138 574.093 974.138 574.093C974.138 574.093 1149.55 502.748 1162.93 499.768C1166.08 499.048 1184.87 502.993 1211.74 509.423C1298.76 530.195 1470.6 577.06 1470.6 577.06Z" fill="url(#paint0_linear_19_714)"/>
<path style="mix-blend-mode:multiply" opacity="0.35" d="M535.615 668.219L746.69 638.49L834.89 621.65L837.864 611.735L854.705 615.702L1023.17 627.59L658.498 687.047L535.615 668.219Z" fill="url(#paint1_linear_19_714)"/>
<path style="mix-blend-mode:multiply" opacity="0.35" d="M616.874 645.431L751.644 626.603V620.656L616.874 645.431Z" fill="url(#paint2_linear_19_714)"/>
<path style="mix-blend-mode:multiply" opacity="0.35" d="M257.155 582.006L459.029 614.406C453.586 613.348 447.055 612.009 439.639 610.439L439.33 610.382C353.779 592.324 152.122 544.321 152.122 544.321L178.87 575.044L257.155 582.006Z" fill="url(#paint3_linear_19_714)"/>
<path style="mix-blend-mode:multiply" opacity="0.35" d="M152.122 544.343L170.69 593.404L150.624 557.728L152.122 544.343Z" fill="url(#paint4_linear_19_714)"/>
<path style="mix-blend-mode:multiply" opacity="0.35" d="M1470.6 577.06L1465.84 698.539L1192.62 548.317L1282.8 569.133L1162.9 499.76L1211.71 509.416C1298.76 530.195 1470.6 577.06 1470.6 577.06Z" fill="url(#paint5_linear_19_714)"/>
<path d="M1457.22 564.669V808.432H-18.8352L-17.5464 757.435L-15.84 689.647L-14.5944 640.305L-14.3424 630.074C-14.3424 630.074 31.7376 621.167 51.0552 615.213C70.3728 609.258 113.494 595.881 119.455 595.881C125.417 595.881 146.218 607.782 161.078 609.266C175.939 610.749 397.433 643.941 443.513 653.366C489.593 662.79 645.667 680.611 669.456 682.108C693.245 683.606 812.153 665.75 818.086 665.75C824.018 665.75 1015.79 595.909 1069.3 583.993C1122.81 572.077 1208.06 566.483 1216.47 569.133C1224.88 571.782 1326.46 583.993 1357.68 579.537C1388.9 575.08 1457.22 564.669 1457.22 564.669Z" fill="url(#paint6_linear_19_714)"/>
<path style="mix-blend-mode:overlay" opacity="0.35" d="M736.279 711.823C736.279 711.823 701.258 726.223 652.853 744.885C633.305 752.431 611.554 760.646 589.054 768.904C550.21 783.168 509.134 797.496 473.069 808.44H-18.8352L-17.5464 757.442L-15.84 689.647L-14.5944 640.305C15.6096 641.493 63.8856 642.76 127.354 642.465C221.335 642.011 288.72 667.442 349.553 687.127C362.246 691.238 374.666 695.097 386.993 698.438C443.671 713.795 630.698 713.205 705.233 712.319C724.529 712.082 736.279 711.823 736.279 711.823Z" fill="url(#paint7_linear_19_714)"/>
<g style="mix-blend-mode:overlay" opacity="0.35">
<path d="M652.614 744.438L652.613 744.439C634.516 753.585 612.793 762.555 588.92 768.419L588.918 768.419C581.868 770.182 574.638 771.631 567.227 772.766C551.551 775.149 516.27 775.822 469.841 775.367C423.432 774.913 365.93 773.333 305.846 771.221C185.945 767.007 55.7685 760.675 -17.0557 756.946L-15.3512 690.092C23.7595 685.441 70.8656 680.621 97.632 680.621C120.345 680.621 163.472 682.156 209.367 683.789C212.238 683.891 215.119 683.994 218.007 684.096C267.057 685.839 317.98 687.591 349.574 687.627H349.574C353.835 687.627 357.736 687.627 361.241 687.547C388.955 687.051 462.259 689.777 535.212 694.239C571.686 696.47 608.065 699.134 638.605 702.046C668.406 704.888 692.617 707.962 705.935 711.092C705.658 711.315 705.308 711.593 704.889 711.925C688.5 724.345 671.001 735.228 652.614 744.438Z" fill="url(#paint8_linear_19_714)" style="mix-blend-mode:overlay"/>
<path d="M652.614 744.438L652.613 744.439C634.516 753.585 612.793 762.555 588.92 768.419L588.918 768.419C581.868 770.182 574.638 771.631 567.227 772.766C551.551 775.149 516.27 775.822 469.841 775.367C423.432 774.913 365.93 773.333 305.846 771.221C185.945 767.007 55.7685 760.675 -17.0557 756.946L-15.3512 690.092C23.7595 685.441 70.8656 680.621 97.632 680.621C120.345 680.621 163.472 682.156 209.367 683.789C212.238 683.891 215.119 683.994 218.007 684.096C267.057 685.839 317.98 687.591 349.574 687.627H349.574C353.835 687.627 357.736 687.627 361.241 687.547C388.955 687.051 462.259 689.777 535.212 694.239C571.686 696.47 608.065 699.134 638.605 702.046C668.406 704.888 692.617 707.962 705.935 711.092C705.658 711.315 705.308 711.593 704.889 711.925C688.5 724.345 671.001 735.228 652.614 744.438Z" stroke="black"/>
</g>
</g>
</g>
<defs>
<linearGradient id="paint0_linear_19_714" x1="189.108" y1="577.211" x2="1052.74" y2="706.53" gradientUnits="userSpaceOnUse">
<stop stop-color="#5D0C9B"/>
<stop offset="1" stop-color="#9B4DFB"/>
</linearGradient>
<linearGradient id="paint1_linear_19_714" x1="915.955" y1="700.223" x2="615.139" y2="584.98" gradientUnits="userSpaceOnUse">
<stop stop-color="#380361"/>
<stop offset="1" stop-color="#9B4DFB"/>
</linearGradient>
<linearGradient id="paint2_linear_19_714" x1="722.16" y1="647.562" x2="640.865" y2="616.415" gradientUnits="userSpaceOnUse">
<stop stop-color="#380361"/>
<stop offset="1" stop-color="#9B4DFB"/>
</linearGradient>
<linearGradient id="paint3_linear_19_714" x1="398.722" y1="625.307" x2="186.005" y2="543.818" gradientUnits="userSpaceOnUse">
<stop stop-color="#380361"/>
<stop offset="1" stop-color="#9B4DFB"/>
</linearGradient>
<linearGradient id="paint4_linear_19_714" x1="172.217" y1="573.013" x2="148.406" y2="563.891" gradientUnits="userSpaceOnUse">
<stop stop-color="#380361"/>
<stop offset="1" stop-color="#9B4DFB"/>
</linearGradient>
<linearGradient id="paint5_linear_19_714" x1="1430.83" y1="623.478" x2="1189.22" y2="530.915" gradientUnits="userSpaceOnUse">
<stop stop-color="#380361"/>
<stop offset="1" stop-color="#9B4DFB"/>
</linearGradient>
<linearGradient id="paint6_linear_19_714" x1="719.194" y1="775.737" x2="719.194" y2="595.888" gradientUnits="userSpaceOnUse">
<stop stop-color="#380361"/>
<stop offset="1" stop-color="#9B4DFB"/>
</linearGradient>
<linearGradient id="paint7_linear_19_714" x1="361.354" y1="671.632" x2="350.957" y2="760.725" gradientUnits="userSpaceOnUse">
<stop stop-color="white"/>
<stop offset="1" stop-color="white" stop-opacity="0"/>
</linearGradient>
<linearGradient id="paint8_linear_19_714" x1="347.846" y1="688.653" x2="336.442" y2="747.542" gradientUnits="userSpaceOnUse">
<stop stop-color="white"/>
<stop offset="1" stop-color="white" stop-opacity="0"/>
</linearGradient>
<clipPath id="clip0_19_714">
<rect width="1440" height="960" fill="white"/>
</clipPath>
</defs>
</svg>
