<svg width="1440" height="960" viewBox="0 0 1440 960" fill="none" xmlns="http://www.w3.org/2000/svg">
<g clip-path="url(#clip0_19_704)">
<mask id="mask0_19_704" style="mask-type:luminance" maskUnits="userSpaceOnUse" x="0" y="0" width="1440" height="960">
<path d="M1440 0H0V960H1440V0Z" fill="white"/>
</mask>
<g mask="url(#mask0_19_704)">
<path d="M606.96 603.311C606.96 603.311 634.81 598.091 650.477 592.864C666.144 587.637 683.546 587.644 683.546 587.644C683.546 587.644 697.471 568.499 711.396 568.499C725.321 568.499 734.026 575.462 734.026 575.462C734.026 575.462 740.988 570.241 749.693 570.241C758.398 570.241 770.573 575.462 770.573 575.462C770.573 575.462 789.718 533.701 828.014 531.945C866.311 530.188 873.274 538.907 873.274 538.907L892.418 535.422L911.563 542.385C911.563 542.385 904.601 472.76 982.93 472.76C1061.26 472.76 1076.93 524.982 1076.93 524.982C1076.93 524.982 1118.69 505.837 1134.37 524.982C1150.05 544.127 1147.33 538.165 1176.13 538.907C1204.93 539.649 1264.9 561.537 1268.38 568.499C1271.86 575.462 606.96 603.311 606.96 603.311Z" fill="white" fill-opacity="0.5"/>
<path d="M992.945 325.102L957.269 337.983C957.269 337.983 1387.35 290.42 1533.02 243.843L1508.24 235.923C1508.24 235.923 1568.72 134.842 1507.25 106.107C1445.77 77.3714 1360.58 163.584 1360.58 163.584C1360.58 163.584 1344.74 152.684 1335.81 156.651C1326.87 160.618 1318.96 168.545 1318.96 168.545C1318.96 168.545 1306.08 130.889 1289.23 130.889C1272.38 130.889 1259.5 140.796 1259.5 140.796C1259.5 140.796 1216.89 54.5834 1118.79 122.962C1020.68 191.341 1084.1 249.805 1084.1 249.805C1084.1 249.805 1056.36 250.798 1051.4 257.725C1046.45 264.651 1041.49 285.474 1041.49 285.474C1041.49 285.474 1035.55 275.566 1029.6 274.573C1023.65 273.579 1010.77 279.526 1010.77 279.526C1010.77 279.526 991.944 212.141 928.519 232.949C865.094 253.757 867.082 314.209 867.082 314.209C867.082 314.209 853.207 315.202 847.26 323.13C843.231 328.297 838.576 332.943 833.4 336.961L786.823 357.769L992.945 325.102Z" fill="white" fill-opacity="0.5"/>
<path d="M446.098 496.175C446.098 496.175 570.42 487.254 625.378 477.548C625.378 477.548 621.691 470.456 610.762 471.011C599.832 471.565 593.813 473.308 593.813 473.308C593.813 473.308 597.06 466.496 591.12 466.259C587.719 466.074 584.318 466.614 581.141 467.843C581.141 467.843 588.341 436.393 560.261 445.192C532.181 453.99 523.368 473.473 523.368 473.473C523.368 473.473 514.728 466.187 507.643 469.873C503.025 472.327 498.603 475.134 494.417 478.268C494.417 478.268 486.655 473.992 479.642 475.698C472.63 477.404 456.948 497.601 446.098 496.175Z" fill="white" fill-opacity="0.5"/>
<path d="M460.303 248.055C460.303 248.055 778.406 185.624 945.878 110.312C945.878 110.312 915.156 110.312 904.255 113.285C893.354 116.259 869.573 126.166 863.626 124.186C857.678 122.206 843.804 124.186 843.804 124.186C843.804 124.186 866.599 86.5299 824.976 85.5363C783.353 84.5427 763.538 137.067 763.538 137.067C763.538 137.067 750.658 133.1 745.704 138.06C740.75 143.021 738.77 153.9 738.77 153.9C738.77 153.9 735.797 146.967 721.922 148.947C713.572 150.154 705.698 153.577 699.12 158.861C699.12 158.861 699.12 147.96 692.186 147.96C685.253 147.96 682.279 150.934 682.279 150.934C682.279 150.934 700.114 90.4539 658.519 90.4539C616.925 90.4539 604.015 177.66 604.015 177.66C604.015 177.66 584.194 177.66 578.254 181.628C572.314 185.595 572.306 199.462 570.334 202.436C568.361 205.409 549.526 206.403 547.538 210.356C545.551 214.309 539.618 223.237 539.618 223.237L460.303 248.055Z" fill="white" fill-opacity="0.5"/>
<path d="M219.744 222.041C219.744 222.041 441.972 125.417 469.44 109.815C469.44 109.815 460.519 106.099 450.857 107.583C441.194 109.066 438.221 111.298 438.221 111.298C438.221 111.298 449.366 83.801 421.128 80.8274C392.89 77.8538 370.591 104.587 370.591 104.587C370.591 104.587 360.187 103.104 352.757 106.071C345.326 109.037 339.379 117.216 339.379 117.216C339.379 117.216 326.002 120.19 322.286 126.137C319.81 130.028 317.08 133.751 314.114 137.283C314.114 137.283 314.834 97.8915 289.591 108.295C264.348 118.7 260.64 187.848 260.64 187.848C260.64 187.848 248.004 179.676 242.057 187.128C236.11 194.581 233.136 204.963 233.136 204.963L219.744 222.041Z" fill="white" fill-opacity="0.5"/>
</g>
</g>
<defs>
<clipPath id="clip0_19_704">
<rect width="1440" height="960" fill="white"/>
</clipPath>
</defs>
</svg>
