<svg width="1440" height="960" viewBox="0 0 1440 960" fill="none" xmlns="http://www.w3.org/2000/svg">
<g clip-path="url(#clip0_52_34)">
<mask id="mask0_52_34" style="mask-type:luminance" maskUnits="userSpaceOnUse" x="0" y="0" width="1440" height="960">
<path d="M1440 0H0V960H1440V0Z" fill="white"/>
</mask>
<g mask="url(#mask0_52_34)">
<path d="M1416.33 738.585L1417.32 726.691L1421.53 727.432L1422.77 742.048L1416.33 738.585Z" fill="#10012B"/>
<path d="M1447.92 793.341C1435.4 816.633 1421.28 834.95 1400.36 837.197C1379.45 839.443 1358.6 847.356 1343.74 837.197C1328.88 827.037 1311.83 798.813 1311.05 793.341C1310.81 792.445 1310.62 791.533 1310.51 790.612C1309.84 786.165 1310.33 781.619 1311.95 777.422C1313.32 774.089 1315.58 771.194 1318.48 769.048C1330 760.408 1342.88 764.556 1343.68 764.822C1343.69 764.819 1343.7 764.819 1343.71 764.822L1349.16 762.885C1349.16 762.885 1347.72 760.603 1348.65 756.974C1349.22 754.555 1350.86 751.538 1354.62 748.183C1362.95 740.774 1382.98 734.855 1389.83 733.61C1390.47 733.47 1391.12 733.385 1391.77 733.358C1395.17 733.358 1411.85 737.829 1418.61 736.274C1418.75 736.254 1418.89 736.223 1419.03 736.18C1425.46 734.359 1434.87 732.357 1441.35 744.266C1447.83 756.175 1460.43 770.049 1447.92 793.341Z" fill="url(#paint0_linear_52_34)"/>
<path d="M1388.59 755.923C1385.75 757.27 1382.65 757.99 1379.51 758.033C1376.36 758.077 1373.25 757.443 1370.37 756.175L1365.67 757.039C1365.67 757.039 1350.69 766.334 1348.68 757.003C1349.25 754.584 1350.89 751.567 1354.64 748.212C1362.97 740.803 1383 734.884 1389.86 733.639C1392.91 733.905 1398.41 734.769 1400.23 737.476C1402.83 741.307 1398.36 751.351 1388.59 755.923Z" fill="url(#paint1_linear_52_34)"/>
<path d="M1337.42 779.344C1328.78 782.664 1314.29 781.728 1311.94 777.422C1313.32 774.089 1315.57 771.194 1318.47 769.048C1329.99 760.408 1342.87 764.556 1343.67 764.822C1343.68 764.819 1343.7 764.819 1343.71 764.822C1343.71 764.822 1347.08 775.622 1337.42 779.344Z" fill="url(#paint2_linear_52_34)"/>
<path style="mix-blend-mode:multiply" opacity="0.5" d="M1447.92 793.341C1435.4 816.633 1421.28 834.95 1400.36 837.197C1379.45 839.443 1358.6 847.356 1343.74 837.197C1328.88 827.037 1311.83 798.813 1311.05 793.341C1310.81 792.445 1310.63 791.533 1310.51 790.612C1316.79 788.584 1323.3 787.334 1329.88 786.89C1344.74 785.911 1363.18 796.488 1367.15 796.97C1371.12 797.452 1376.45 771.014 1376.45 771.014C1376.45 771.014 1389.73 760.279 1403.65 757.478C1413.16 755.556 1417.1 743.654 1418.65 736.281C1418.8 736.261 1418.94 736.23 1419.08 736.187C1425.51 734.366 1434.92 732.364 1441.4 744.273C1447.88 756.182 1460.43 770.049 1447.92 793.341Z" fill="url(#paint3_linear_52_34)"/>
<path d="M1463.04 709.533C1459.7 721.665 1449.66 727.533 1438.33 730.075C1427 732.616 1402.16 736.893 1395.17 730.075C1393.22 728.654 1391.42 727.046 1389.79 725.272C1387.63 722.911 1385.79 719.995 1386.12 717.266C1386.45 714.537 1390.44 711.081 1394.68 708.165C1399.72 704.687 1405.22 702.023 1405.57 702.326C1406.18 702.902 1407.16 693.974 1415.59 690.518C1424.02 687.062 1433.43 684.038 1441.36 686.543C1449.3 689.049 1466.37 697.401 1463.04 709.533Z" fill="url(#paint4_linear_52_34)"/>
<path style="mix-blend-mode:multiply" opacity="0.5" d="M1463.04 709.533C1459.7 721.665 1449.66 727.533 1438.33 730.075C1427 732.616 1402.16 736.893 1395.17 730.075C1393.22 728.654 1391.42 727.046 1389.79 725.272C1394.83 725.942 1401.23 726.079 1405.68 723.717C1410.76 720.978 1414.78 716.619 1417.09 711.333L1427 707.359C1427 707.359 1434.92 717.266 1442.35 710.332C1449.79 703.399 1432.45 698.445 1426 699.928C1420.24 701.253 1403.74 708.143 1394.68 708.165C1399.72 704.687 1405.22 702.023 1405.57 702.326C1406.18 702.902 1407.16 693.974 1415.59 690.518C1424.02 687.062 1433.43 684.038 1441.36 686.543C1449.3 689.049 1466.37 697.401 1463.04 709.533Z" fill="url(#paint5_linear_52_34)"/>
<path d="M1398.52 720.289C1402.3 718.344 1404.41 714.881 1403.21 712.553C1402.02 710.225 1397.98 709.914 1394.19 711.859C1390.4 713.804 1388.3 717.267 1389.49 719.595C1390.69 721.923 1394.73 722.234 1398.52 720.289Z" fill="url(#paint6_linear_52_34)"/>
<path d="M1478.64 645.366C1476.53 672.935 1471.32 685.399 1455.6 691.562C1439.87 697.725 1422.51 695.327 1420.03 695.767C1417.56 696.206 1402.7 705.962 1390.81 703.312C1390.81 703.312 1378.91 709.439 1371.97 703.312H1367.14C1367.14 703.312 1366.25 716.906 1347.06 710.57C1335.92 706.883 1329.43 697.61 1328.62 688.084C1328.31 684.504 1328.85 680.901 1330.18 677.565C1331.52 674.23 1333.62 671.255 1336.32 668.882C1350.2 656.555 1363.08 658.722 1363.08 658.722C1361.09 655.56 1359.48 652.177 1358.27 648.642C1356.39 642.998 1355.54 636.122 1359.71 631.226C1368.06 621.398 1378.62 620.426 1381.77 615.443C1384.91 610.461 1385.65 600.086 1400.39 598.106C1409.82 596.838 1418.23 596.493 1425.95 597.796C1430.25 598.491 1434.43 599.803 1438.35 601.691C1443.57 604.226 1453.47 608.006 1462.16 614.248C1471.68 621.117 1479.75 630.945 1478.64 645.366Z" fill="url(#paint7_linear_52_34)"/>
<path style="mix-blend-mode:multiply" opacity="0.5" d="M1478.64 645.366C1476.53 672.935 1471.32 685.399 1455.6 691.562C1439.87 697.725 1422.51 695.327 1420.03 695.767C1417.56 696.206 1402.7 705.962 1390.81 703.312C1390.81 703.312 1378.91 709.439 1371.97 703.312H1367.14C1367.14 703.312 1366.25 716.906 1347.06 710.57C1335.92 706.883 1329.43 697.61 1328.62 688.084C1332.52 693.441 1339.91 700.987 1349.07 698.452C1362.43 694.73 1384.35 688.048 1382.91 680.618C1381.47 673.187 1376.96 669.465 1376.96 669.465L1381.05 668.745C1381.05 668.745 1402.61 675.059 1414.49 663.928C1426.1 653.02 1410.4 632.19 1409.67 631.247C1410.63 632.018 1440.05 655.979 1457.6 648.318C1470.21 642.789 1468.69 626.51 1462.15 614.298C1471.68 621.117 1479.75 630.945 1478.64 645.366Z" fill="url(#paint8_linear_52_34)"/>
<path style="mix-blend-mode:screen" opacity="0.75" d="M1425.92 597.81C1424.17 602.267 1420.88 608.294 1415.58 610.77C1407.15 614.723 1388.09 615.227 1386.84 616.97C1385.6 618.712 1402.68 637.036 1392.8 646.194C1385.16 653.279 1367.19 654.741 1358.24 648.671C1356.36 643.026 1355.51 636.15 1359.68 631.254C1368.03 621.426 1378.59 620.454 1381.74 615.472C1384.88 610.49 1385.62 600.114 1400.36 598.134C1409.76 596.881 1418.2 596.5 1425.92 597.81Z" fill="url(#paint9_linear_52_34)"/>
<path style="mix-blend-mode:screen" opacity="0.75" d="M1360.84 675.664C1353.22 680.596 1336.56 682.634 1329.36 680.042C1330.52 675.713 1332.94 671.828 1336.32 668.882C1350.2 656.555 1363.08 658.722 1363.08 658.722C1363.08 658.722 1370.75 669.213 1360.84 675.664Z" fill="url(#paint10_linear_52_34)"/>
<path d="M1139.62 847.082C1137.14 863.441 1119.61 892.183 1094.52 895.639C1069.42 899.095 1026.64 883.255 1018.71 872.851C1012.63 864.866 1003.59 838.154 999.763 818.57C998.681 813.598 998.056 808.537 997.898 803.45C997.898 803.45 1001.38 790.087 1007.32 786.609C1013.27 783.132 1020.69 782.656 1020.69 782.656C1020.69 782.656 1011.2 762.46 1008.11 748.269C1007.27 744.41 1006.9 740.99 1007.32 738.556C1009.3 727.151 1022.18 722.198 1037.56 714.271C1052.94 706.343 1060.35 704.363 1070.26 704.86C1072.95 704.999 1075.61 705.483 1078.18 706.3C1085.55 708.64 1092.33 713.903 1094.52 722.68C1094.77 723.681 1095.03 724.675 1095.3 725.654C1098.35 736.367 1103.22 746.124 1111.86 753.396C1121.28 761.316 1135.15 770.733 1140.58 785.594C1146.01 800.455 1142.09 830.745 1139.62 847.082Z" fill="url(#paint11_linear_52_34)"/>
<path d="M1064.04 753.698C1051.16 763.857 1036.05 769.308 1024.44 764.102C1017.71 761.085 1011.22 755.829 1008.14 748.298C1007.3 744.439 1006.93 741.019 1007.36 738.585C1009.34 727.18 1022.22 722.227 1037.6 714.299C1052.98 706.372 1060.39 704.392 1070.29 704.889C1072.99 705.028 1075.65 705.512 1078.21 706.329C1079.47 707.234 1080.5 708.432 1081.19 709.821C1086.35 720.499 1076.93 743.539 1064.04 753.698Z" fill="url(#paint12_linear_52_34)"/>
<path style="mix-blend-mode:multiply" opacity="0.5" d="M1139.62 847.082C1137.14 863.441 1119.61 892.183 1094.52 895.639C1069.42 899.095 1026.64 883.255 1018.71 872.851C1012.63 864.866 1003.59 838.154 999.763 818.57C1006.29 824.481 1014.97 830.184 1025.16 831.725C1048.44 835.202 1059.84 830.745 1062.32 821.817C1064.76 813.062 1040.91 792.362 1040.05 791.613C1040.7 791.98 1053.32 798.95 1068.27 796.048C1083.63 793.075 1089.56 775.737 1085.11 772.756C1080.66 769.776 1076.68 766.824 1076.68 766.824C1076.68 766.824 1097.99 760.869 1095.52 747.492C1094.28 740.904 1094.63 732.515 1095.31 725.697C1098.36 736.411 1103.23 746.167 1111.87 753.439C1121.29 761.359 1135.16 770.776 1140.59 785.637C1146.02 800.498 1142.09 830.745 1139.62 847.082Z" fill="url(#paint13_linear_52_34)"/>
<path d="M995.674 970.462L901.289 1009.11L648.619 967.733L642.65 966.754C642.65 966.754 641.93 956.134 644.436 946.882C645.552 942.713 647.316 938.818 650.081 936.283C659.009 928.104 672.401 928.831 672.401 928.831L679.831 927.355C679.831 927.355 673.632 918.622 671.825 907.656C670.385 898.922 671.767 888.785 681.329 880.526C702.871 861.957 712.548 853.029 729.634 860.46C746.719 867.89 757.879 875.321 761.602 887.957C761.802 888.689 762.043 889.41 762.322 890.117C766.548 901.579 776.434 909.492 776.434 909.492C776.434 909.492 800.95 914.697 804.679 921.379C805.104 922.099 805.507 922.474 805.982 922.495C809.532 922.495 815.177 902.587 838.836 906.518C848.44 908.144 857.796 910.989 866.678 914.986C877.658 919.903 884.678 924.972 886.414 925.85C889.387 927.326 913.91 920.645 922.09 922.128C930.269 923.611 969.646 914.698 979.308 927.334C983.34 932.597 986.832 940.927 989.561 948.876C991.958 955.965 993.998 963.169 995.674 970.462Z" fill="url(#paint14_linear_52_34)"/>
<path style="mix-blend-mode:multiply" opacity="0.5" d="M995.674 970.462L901.289 1009.11L648.619 967.733C650.002 963.182 654.494 955.925 668.412 948.667C691.2 936.766 702.605 933.785 710.035 938.263C717.466 942.742 727.87 953.621 727.87 953.621C727.87 953.621 742.234 950.143 752.141 945.701C762.048 941.258 777.406 938.27 783.36 943.224C789.314 948.178 799.718 950.158 799.718 950.158C799.718 950.158 811.102 928.845 837.367 933.799C863.633 938.753 874.519 944.203 878.494 949.639C882.468 955.075 897.811 950.64 903.262 950.136C908.712 949.632 923.076 948.156 923.076 948.156C931.771 946.787 940.544 945.96 949.342 945.679C959.594 945.334 977.422 945.679 989.568 948.883C991.962 955.969 994 963.171 995.674 970.462Z" fill="url(#paint15_linear_52_34)"/>
<path d="M762.314 890.153C758.664 892.363 753.329 893.472 747.432 895.027C733.32 898.749 722.16 881.282 722.16 881.282C722.16 881.282 725.134 909.161 710.64 915.122C696.146 921.084 686.484 919.212 674.582 910.306C673.56 909.535 672.621 908.659 671.782 907.692C670.342 898.958 671.724 888.821 681.286 880.562C702.828 861.993 712.505 853.065 729.59 860.496C746.676 867.926 757.836 875.357 761.558 887.993C761.771 888.726 762.023 889.447 762.314 890.153Z" fill="url(#paint16_linear_52_34)"/>
<path d="M673.862 937.766C661.961 946.313 650.441 951.511 646.733 948.566C646.013 947.99 645.199 947.45 644.429 946.918C645.545 942.749 647.309 938.854 650.074 936.319C659.002 928.14 672.394 928.867 672.394 928.867L679.824 927.391C679.824 927.391 685.742 929.22 673.862 937.766Z" fill="url(#paint17_linear_52_34)"/>
<path d="M867.341 925.382C860.911 929.587 822.758 928.608 815.328 927.11C808.726 925.807 806.422 923.114 805.968 922.524C809.518 922.524 815.162 902.616 838.822 906.547C848.425 908.172 857.782 911.018 866.664 915.014C870.48 919.046 870.912 923.042 867.341 925.382Z" fill="url(#paint18_linear_52_34)"/>
<path d="M1064.79 889.706C1064.3 900.11 1057.86 908.045 1051.41 915.475C1044.96 922.906 1020.19 932.316 1005.33 935.786C990.468 939.257 980.561 945.694 971.633 949.15C962.705 952.606 932.033 954.125 923.076 948.17C914.119 942.216 901.786 927.355 901.282 913.473C900.821 900.549 907.25 900.11 908.114 900.11H908.208L905.234 896.136C905.234 896.136 895.327 896.633 891.871 890.203C891.172 888.943 890.538 887.647 889.97 886.322C887.81 881.174 887.342 875.702 892.85 867.408C899.798 857.004 917.64 852.547 917.64 852.547C917.64 852.547 926.777 850.387 936.648 847.284C943.193 845.21 950.069 842.733 954.792 840.163C964.447 834.943 994.039 830.695 1013.58 830.868C1017.46 830.832 1021.33 831.121 1025.16 831.732C1041.49 834.705 1049.93 849.566 1050.9 853.044C1051.88 856.521 1050.9 864.931 1050.9 864.931C1050.9 864.931 1059.34 866.429 1061.81 869.402C1064.29 872.376 1065.29 879.302 1064.79 889.706Z" fill="url(#paint19_linear_52_34)"/>
<path d="M935.482 873.103C932.868 878.69 927.67 885.005 920.988 887.237C914.306 889.469 900.173 891.326 891.994 887.604C891.268 887.273 890.59 886.847 889.978 886.337C887.818 881.189 887.35 875.717 892.858 867.422C899.806 857.018 917.647 852.561 917.647 852.561C917.647 852.561 926.784 850.401 936.655 847.298C941.335 854.109 937.8 868.106 935.482 873.103Z" fill="url(#paint20_linear_52_34)"/>
<path style="mix-blend-mode:multiply" opacity="0.5" d="M1064.79 889.706C1064.3 900.11 1057.86 908.045 1051.41 915.475C1044.96 922.906 1020.19 932.316 1005.33 935.786C990.468 939.257 980.561 945.694 971.633 949.15C962.705 952.606 932.033 954.125 923.076 948.17C914.119 942.216 901.785 927.355 901.281 913.473C900.821 900.549 907.25 900.11 908.114 900.11H908.208C908.208 900.11 924.566 905.064 931.5 909.521C938.433 913.977 953.309 913.474 957.269 910.997C961.229 908.52 965.189 904.063 962.222 896.633C959.256 889.202 942.408 875.321 942.408 875.321C950.948 864.852 960.959 855.675 972.129 848.076C985.298 839.299 1002.23 833.236 1013.58 830.853C1017.46 830.817 1021.33 831.106 1025.16 831.717C1041.49 834.691 1049.93 849.552 1050.9 853.029C1051.88 856.507 1050.9 864.917 1050.9 864.917C1050.9 864.917 1059.34 866.414 1061.81 869.388C1064.29 872.361 1065.29 879.302 1064.79 889.706Z" fill="url(#paint21_linear_52_34)"/>
<path d="M1052.77 830.011C1049.11 847.241 1032.99 861.569 1019.61 865.68C1006.22 869.791 998.071 869.121 998.071 869.121L990.785 871.505C990.785 871.505 992.758 879.122 977.213 882.305C961.668 885.487 938.023 887.265 925.999 870.245C925.999 870.245 920.765 861.605 915.379 858.926C912.859 857.779 910.749 855.89 909.331 853.512C907.171 850.099 905.645 844.749 907.171 836.613C910.512 818.613 921.168 807.194 930.254 805.351C935.922 804.243 941.748 804.216 947.426 805.272L953.186 803.148C953.186 803.148 952.006 790.375 957.578 781.512C961.992 774.52 968.105 766.492 975.722 764.599C975.755 764.589 975.79 764.589 975.823 764.599C977.885 764.089 980.038 764.07 982.109 764.541C988.013 765.859 992.909 767.882 996.422 770.366C999.245 772.332 1001.16 774.592 1001.96 776.99C1003.75 782.361 1004.12 795.818 1004.12 795.818L1011.28 799.375C1011.28 799.375 1018.23 792.513 1030.49 798.691C1030.81 798.849 1031.12 799.015 1031.44 799.195C1044.3 806.186 1056.43 812.796 1052.77 830.011Z" fill="url(#paint22_linear_52_34)"/>
<path style="mix-blend-mode:multiply" opacity="0.5" d="M1052.77 830.011C1049.11 847.241 1032.99 861.569 1019.61 865.68C1006.22 869.791 998.071 869.121 998.071 869.121L990.785 871.505C990.785 871.505 992.758 879.122 977.213 882.305C961.668 885.487 938.023 887.265 925.999 870.245C925.999 870.245 920.765 861.605 915.379 858.926C915.379 858.926 936 862.116 950.357 859.956C964.714 857.796 973.21 858.516 975.859 853.476C978.509 848.436 974.974 841.841 974.974 841.841L979.841 841.495C979.841 841.495 986.026 847.975 1002.88 847.14C1019.74 846.305 1031.41 822.278 1027.26 813.732C1023.11 805.185 1016 805.711 1016 805.711C1016 805.711 1022.2 799.951 1030.51 798.669C1030.83 798.828 1031.14 798.993 1031.46 799.173C1044.3 806.186 1056.43 812.796 1052.77 830.011Z" fill="url(#paint23_linear_52_34)"/>
<path style="mix-blend-mode:multiply" opacity="0.5" d="M999.878 808.231C995.616 817.591 982.058 822.17 982.058 822.17C982.058 822.17 993.506 816.158 994.975 796.142C995.94 782.973 988.186 779.114 990.871 773.613C992.052 771.187 993.398 770.092 996.422 770.337C999.245 772.303 1001.16 774.564 1001.96 776.961C1003.75 782.332 1004.12 795.789 1004.12 795.789C1004.12 795.789 1004.13 798.9 999.878 808.231Z" fill="url(#paint24_linear_52_34)"/>
<path d="M979.272 792.06C976.824 799.31 977.321 808.85 971.813 810.261C966.305 811.672 957.636 808.166 953.194 803.133C953.194 803.133 952.013 790.36 957.586 781.497C961.999 774.506 968.112 766.478 975.73 764.584C975.763 764.574 975.798 764.574 975.83 764.584C977.327 764.349 978.859 764.601 980.201 765.304C986.4 768.782 981.742 784.802 979.272 792.06Z" fill="url(#paint25_linear_52_34)"/>
<path d="M943.56 833.841C934.661 837.765 927.202 835.476 927.202 835.476C927.202 835.476 925.294 838.305 925.812 843.18C926.251 847.183 917.741 858.3 909.331 853.512C907.171 850.099 905.645 844.749 907.171 836.613C910.512 818.613 921.168 807.194 930.254 805.351C935.922 804.243 941.748 804.216 947.426 805.272C947.426 805.272 951.638 808.411 951.163 816.216C950.688 824.021 952.459 829.91 943.56 833.841Z" fill="url(#paint26_linear_52_34)"/>
<path d="M1304.12 828.268C1289.24 854.513 1269.93 879.302 1225.32 877.322C1187.71 875.63 1149.72 858.451 1136.1 846.276C1133.57 844.008 1131.88 841.956 1131.18 840.149C1131.18 840.149 1124.76 830.241 1127.71 822.811C1129.84 817.225 1132.9 812.038 1136.75 807.468C1140.56 802.98 1145.47 799.558 1151 797.539C1164.88 792.585 1216.92 782.678 1237.23 779.2C1257.54 775.723 1285.29 779.2 1293.71 784.154C1302.13 789.108 1318.98 802.003 1304.12 828.268Z" fill="url(#paint27_linear_52_34)"/>
<path style="mix-blend-mode:multiply" opacity="0.75" d="M1304.12 828.268C1289.24 854.513 1269.93 879.302 1225.32 877.322C1187.71 875.63 1149.72 858.451 1136.1 846.276C1140.86 839.421 1145.32 832.358 1146.55 828.276C1149 820.118 1140 810.592 1136.76 807.482C1140.57 802.994 1145.48 799.573 1151.01 797.553C1164.89 792.6 1216.92 782.692 1237.23 779.215C1257.54 775.737 1285.29 779.215 1293.72 784.168C1302.14 789.122 1318.98 802.003 1304.12 828.268Z" fill="url(#paint28_linear_52_34)"/>
<path d="M1352.16 903.069C1334.33 916.951 1272.88 920.429 1272.88 920.429L1267.43 924.886C1267.43 924.886 1271.89 936.773 1256.52 946.68C1241.16 956.587 1170.84 969.972 1153.45 952.634C1136.07 935.297 1119.78 920.954 1105.39 922.394C1091.01 923.834 1081.12 913.466 1080.13 904.056C1079.34 896.568 1074.79 888.468 1072.97 885.451C1072.48 884.681 1072.2 884.241 1072.2 884.241C1071.26 881.416 1071.14 878.385 1071.84 875.493C1072.54 872.602 1074.04 869.965 1076.17 867.883L1088.55 855.499C1088.55 855.499 1092.01 847.579 1094.49 847.068C1095.44 846.873 1096.98 847.874 1098.52 849.163C1100.26 850.671 1101.89 852.295 1103.41 854.023L1108.37 852.525C1108.37 852.525 1100.94 844.605 1109.37 838.665C1117.8 832.725 1126.21 831.235 1135.14 832.711C1137.12 833.03 1139.14 833.042 1141.13 832.747C1147.21 831.883 1152.15 828.636 1155.93 828.254C1160.91 827.757 1179.22 823.3 1189.63 825.28C1200.03 827.26 1217.87 831.71 1217.87 831.71C1217.87 831.71 1238.69 826.26 1248.6 832.207H1253.55C1253.55 832.207 1247.12 818.822 1256.03 809.419C1264.93 800.016 1282.79 798.511 1289.22 796.034C1295.66 793.557 1292.2 784.651 1307.56 781.67C1322.93 778.689 1334.33 777.696 1337.31 786.127C1339.08 791.388 1339.58 796.992 1338.78 802.485L1344.23 804.465C1344.23 804.465 1338.78 797.035 1351.17 801.988C1363.55 806.942 1373.49 824.776 1374.46 840.149C1375.43 855.521 1370.02 889.202 1352.16 903.069Z" fill="url(#paint29_linear_52_34)"/>
<path style="mix-blend-mode:screen" opacity="0.75" d="M1091.52 856.759C1091.52 856.759 1098.4 867.336 1097.83 871.425C1097.27 875.515 1089.85 880.908 1080.36 884.443C1077.13 885.631 1074.72 885.789 1072.95 885.458C1072.47 884.688 1072.18 884.249 1072.18 884.249C1071.25 881.423 1071.12 878.392 1071.83 875.5C1072.53 872.609 1074.03 869.972 1076.16 867.89L1088.54 855.506C1088.54 855.506 1092 847.586 1094.47 847.075C1095.43 846.881 1096.97 847.881 1098.5 849.17C1099.43 852.36 1098.19 856.082 1097.06 856.925C1095.65 858.048 1091.52 856.759 1091.52 856.759Z" fill="url(#paint30_linear_52_34)"/>
<path style="mix-blend-mode:screen" opacity="0.75" d="M1149.12 849.141C1147.82 855.074 1134.8 855.269 1125.7 855.621C1119.77 855.723 1113.88 854.666 1108.36 852.511C1108.36 852.511 1100.93 844.591 1109.36 838.651C1117.79 832.711 1126.2 831.221 1135.13 832.697C1137.11 833.015 1139.13 833.027 1141.12 832.732C1147.56 836.599 1150.39 843.453 1149.12 849.141Z" fill="url(#paint31_linear_52_34)"/>
<path style="mix-blend-mode:multiply" opacity="0.5" d="M1248.62 872.858C1233.75 880.778 1218.89 866.414 1218.89 866.414L1212.44 868.891C1212.44 868.891 1214.42 876.811 1202.04 888.713C1189.66 900.614 1154.48 890.693 1152.99 888.713C1151.5 886.733 1140.11 878.805 1130.67 877.315C1121.23 875.825 1090.04 885.739 1082.11 892.673C1080.68 893.883 1079.44 895.297 1078.42 896.87C1079.26 899.198 1079.83 901.614 1080.13 904.07C1081.12 913.488 1091.03 923.892 1105.4 922.402C1119.77 920.911 1136.12 935.282 1153.46 952.642C1170.8 970.001 1241.16 956.609 1256.52 946.694C1271.88 936.78 1267.42 924.893 1267.42 924.893L1272.87 920.436C1272.87 920.436 1334.31 916.966 1352.15 903.091C1369.99 889.217 1375.44 855.528 1374.47 840.163C1373.51 824.798 1363.57 806.964 1351.19 802.003C1338.8 797.042 1344.25 804.48 1344.25 804.48L1342.27 809.433L1337.32 808.937L1338.8 802.492C1339.61 797.001 1339.1 791.397 1337.32 786.141C1334.35 777.717 1322.92 778.711 1307.59 781.684C1292.26 784.658 1295.7 793.579 1289.26 796.084C1283.39 798.345 1268.04 799.8 1258.62 807.18C1262.22 810.297 1269.06 817.31 1267.98 824.323C1266.5 833.741 1253.58 832.243 1253.58 832.243H1248.63C1248.63 832.243 1263.48 864.931 1248.62 872.858Z" fill="url(#paint32_linear_52_34)"/>
<path style="mix-blend-mode:multiply" opacity="0.75" d="M1119.24 861.77H1108.8C1107.3 856.01 1103.41 854.03 1103.41 854.03L1108.36 852.533L1119.24 861.77Z" fill="url(#paint33_linear_52_34)"/>
<path d="M1304.12 776.234C1300.15 787.142 1285.29 798.043 1276.86 799.022C1272.91 799.558 1268.94 799.892 1264.97 800.023C1264.97 800.023 1262.49 806.956 1257.54 807.943C1255.09 808.484 1252.61 808.811 1250.11 808.922C1250.11 808.941 1250.11 808.961 1250.11 808.98C1249.55 810.052 1240.55 827.448 1220.39 833.208C1199.57 839.141 1175.31 837.16 1165.9 830.234C1156.97 823.668 1152.94 816.64 1152.53 815.928C1152.53 815.909 1152.53 815.889 1152.53 815.87C1152.53 815.87 1136.27 824.28 1128.55 812.896C1128.55 812.896 1100 806.942 1095.05 797.056C1092.81 792.644 1091.34 787.885 1090.69 782.98C1089.86 776.335 1091 769.675 1095.55 764.836C1103.47 756.427 1114.39 754.929 1114.39 754.929C1114.39 754.929 1119.84 742.545 1131.23 737.592C1142.62 732.638 1145.63 731.637 1145.63 731.637L1150.08 725.207C1150.08 725.207 1141.16 717.777 1146.61 697.963C1152.06 678.148 1165.94 659.803 1182.78 656.836C1194.36 654.784 1205.47 652.516 1213.69 654.186C1217.43 654.957 1220.58 656.526 1222.91 659.313C1230.34 668.219 1235.29 677.147 1238.26 680.128C1241.24 683.109 1251.65 689.539 1252.14 696.465C1252.14 696.731 1252.18 697.005 1252.18 697.293C1252.45 704.299 1250.16 715.293 1250.16 715.293C1250.16 715.293 1255.12 714.796 1257.1 716.769C1259.08 718.742 1261.05 722.723 1261.05 722.723C1261.05 722.723 1268 712.319 1278.89 721.723C1289.77 731.126 1284.84 756.916 1284.84 756.916C1284.84 756.916 1291.32 752.445 1296.73 755.916C1302.13 759.386 1308.07 765.362 1304.12 776.234Z" fill="url(#paint34_linear_52_34)"/>
<path style="mix-blend-mode:screen" opacity="0.75" d="M1205.01 686.551C1200.05 695.479 1202.53 723.22 1187.67 725.697C1172.81 728.174 1150.02 725.2 1150.02 725.2C1150.02 725.2 1141.09 717.77 1146.54 697.955C1151.99 678.141 1165.87 659.795 1182.72 656.829C1194.29 654.777 1205.41 652.509 1213.62 654.179C1217.43 657.196 1219.98 660.94 1220.86 664.756C1222.85 673.202 1209.96 677.644 1205.01 686.551Z" fill="url(#paint35_linear_52_34)"/>
<path style="mix-blend-mode:screen" opacity="0.75" d="M1187.67 746.995C1185.19 759.876 1180.74 771.28 1167.85 773.757C1154.97 776.234 1134.16 767.328 1132.68 766.824C1131.21 766.32 1121.88 761.676 1121.3 761.388C1121.74 761.654 1128.77 766.053 1130.66 773.253C1132.65 780.684 1130.18 793.564 1118.77 797.013C1107.37 800.462 1102.41 799.987 1093.51 787.106C1092.53 785.666 1091.55 784.284 1090.63 782.937C1089.8 776.292 1090.94 769.632 1095.49 764.793C1103.41 756.383 1114.32 754.886 1114.32 754.886C1114.32 754.886 1119.77 742.502 1131.16 737.548C1142.55 732.595 1145.56 731.594 1145.56 731.594C1145.56 731.594 1160.92 735.071 1170.33 733.091C1179.74 731.111 1187.67 725.661 1187.67 725.661C1187.67 725.661 1190.16 734.114 1187.67 746.995Z" fill="url(#paint36_linear_52_34)"/>
<path style="mix-blend-mode:multiply" opacity="0.5" d="M1304.12 776.234C1300.15 787.142 1285.29 798.043 1276.86 799.022C1272.91 799.558 1268.94 799.892 1264.97 800.023C1264.97 800.023 1262.49 806.956 1257.54 807.943C1255.09 808.484 1252.61 808.811 1250.11 808.922C1250.11 808.941 1250.11 808.961 1250.11 808.98C1249.55 810.052 1240.55 827.448 1220.39 833.208C1199.57 839.141 1175.31 837.161 1165.9 830.234C1156.97 823.668 1152.94 816.64 1152.53 815.928C1152.53 815.909 1152.53 815.889 1152.53 815.87L1149.19 808.058C1142.49 812.515 1128.55 812.896 1128.55 812.896C1142.47 812.176 1151.04 792.448 1151.04 792.448C1160.33 808.807 1205.68 821.076 1222.02 808.807C1238.36 796.538 1222.74 787.632 1222.74 787.632C1251.73 788.352 1258.42 772.022 1258.42 772.022C1258.42 772.022 1267.71 774.996 1273.64 771.302C1279.58 767.608 1284.8 756.938 1284.8 756.938C1284.8 756.938 1291.28 752.467 1296.68 755.937C1302.09 759.408 1308.07 765.362 1304.12 776.234Z" fill="url(#paint37_linear_52_34)"/>
<path style="mix-blend-mode:multiply" opacity="0.5" d="M1284.78 756.924C1279.33 763.404 1263.72 765.081 1253.31 763.605C1242.9 762.129 1228.32 754.922 1228.32 754.922C1228.32 754.922 1253.11 746.512 1258.56 737.584C1264.01 728.656 1261.04 722.723 1261.04 722.723C1261.04 722.723 1267.98 712.319 1278.87 721.723C1289.76 731.126 1284.78 756.924 1284.78 756.924Z" fill="url(#paint38_linear_52_34)"/>
<path style="mix-blend-mode:multiply" opacity="0.5" d="M1250.11 715.293C1250.11 715.293 1236.72 722.493 1228.54 723.933C1220.36 725.373 1206.22 723.933 1206.22 723.933C1206.22 723.933 1223.56 717.503 1230.24 710.57C1236.92 703.636 1243.12 696.436 1246.6 695.212C1248.62 694.492 1250.69 695.846 1252.09 697.264C1252.4 704.291 1250.11 715.293 1250.11 715.293Z" fill="url(#paint39_linear_52_34)"/>
<path d="M544.162 925.13C541.188 939.624 500.306 951.878 500.306 951.878C500.306 951.878 495.101 964.896 485.813 964.514C485.813 964.514 490.27 989.419 466.114 992.026C441.958 994.632 419.666 982.73 418.19 969.353L410.011 966.012C410.011 966.012 398.858 982.738 379.159 966.012C379.159 966.012 364.68 957.466 366.163 946.313C367.546 935.851 375.17 933.238 376.106 932.95H376.2L375.48 929.609C375.48 929.609 353.16 938.537 355.032 925.519C356.904 912.501 365.04 907.663 365.04 907.663C365.04 907.663 358.438 903.941 367.711 894.163C369.21 892.63 370.8 891.187 372.47 889.843C388.447 876.847 417.434 885.386 417.434 885.386L421.524 884.666C421.524 884.666 413.712 876.869 425.614 873.528C437.515 870.187 464.263 872.03 466.488 885.415C467.1 889.08 467.604 891.845 468.007 893.94C469.066 899.491 469.447 900.276 469.447 900.276C469.447 900.276 489.514 887.28 509.94 889.123C516.984 889.847 523.701 892.462 529.38 896.69C539.726 904.128 546.106 915.727 544.162 925.13Z" fill="url(#paint40_linear_52_34)"/>
<path d="M468 893.897C461.354 898.353 449.914 900.233 440.964 899.117C427.082 897.389 424.354 888.957 424.354 888.957L420.149 891.931C420.149 891.931 416.671 904.315 407.765 906.792C398.858 909.269 379.274 909.765 370.325 901.586C369.26 900.697 368.453 899.539 367.987 898.232C367.521 896.926 367.413 895.518 367.675 894.156C369.174 892.623 370.764 891.18 372.434 889.836C388.411 876.84 417.398 885.379 417.398 885.379L421.488 884.659C421.488 884.659 413.676 876.861 425.578 873.521C437.479 870.18 464.227 872.023 466.452 885.408C467.114 889.037 467.618 891.801 468 893.897Z" fill="url(#paint41_linear_52_34)"/>
<path style="mix-blend-mode:multiply" opacity="0.5" d="M544.162 925.13C541.188 939.624 500.306 951.878 500.306 951.878C500.306 951.878 495.101 964.896 485.813 964.514C485.813 964.514 490.27 989.419 466.114 992.026C441.958 994.632 419.666 982.73 418.19 969.353L410.011 966.012C410.011 966.012 398.858 982.738 379.159 966.012C379.159 966.012 364.68 957.466 366.163 946.313C367.546 935.851 375.17 933.238 376.106 932.95H376.2C376.2 932.95 373.586 936.787 388.202 941.266C402.818 945.744 423.144 938.04 423.648 924.907L429.581 923.906C429.581 923.906 432.058 934.31 445.687 939.746C459.317 945.182 479.131 929.839 478.382 922.661C477.634 915.482 469.742 901.349 469.742 901.349H473.45C473.45 901.349 494.762 913.733 508.874 908.052C516.181 905.116 523.095 901.285 529.459 896.647C539.726 904.128 546.106 915.727 544.162 925.13Z" fill="url(#paint42_linear_52_34)"/>
<path d="M504.648 923.15L511.092 906.799L511.589 895.646L493.502 869.388L495.482 868.646L513.317 892.183L529.668 861.216L537.847 862.202L516.046 893.666L517.284 910.018L514.807 921.912L504.648 923.15Z" fill="#10012B"/>
<path d="M612.922 961.202C605.11 969.382 598.788 974.22 571.298 980.534C543.809 986.849 516.29 976.445 514.814 975.329C513.338 974.213 505.512 974.162 505.512 974.162C505.512 974.162 512.942 993.862 495.468 996.483C477.994 999.103 455.702 989.419 453.478 982.371C451.253 975.322 456.091 967.488 456.091 967.488C456.091 967.488 448.279 964.147 447.545 960.806C447.545 960.806 440.842 952.339 442.879 941.626C442.937 941.338 442.994 941.028 443.074 940.74C445.687 929.587 449.777 922.517 462.046 922.906C469.254 923.067 476.246 925.395 482.112 929.587C483.142 929 484.277 928.621 485.453 928.471C487.678 928.104 491.407 928.838 491.407 928.838C491.407 928.838 486.569 917.318 499.205 912.501C507.982 909.139 517.291 912.768 522.166 915.302C523.344 915.907 524.486 916.58 525.586 917.318C527.026 915.958 528.838 915.056 530.791 914.726C533.765 914.359 542.311 912.113 542.311 912.113C542.311 912.113 536.666 907.541 538.222 903.185C539.28 900.305 543.485 897.482 554.58 896.157C564.66 894.948 573.336 895.2 580.291 896.366C585.878 897.324 590.371 898.879 593.539 900.78C597.341 903.005 599.299 905.712 599.162 908.419C598.795 916.217 591.732 925.505 591.732 925.505C595.907 927.777 599.888 930.39 603.634 933.317C609.192 937.766 620.712 952.994 612.922 961.202Z" fill="url(#paint43_linear_52_34)"/>
<path style="mix-blend-mode:multiply" opacity="0.5" d="M612.922 961.202C605.11 969.382 598.788 974.22 571.298 980.534C543.809 986.849 516.29 976.445 514.814 975.329C513.338 974.213 505.512 974.162 505.512 974.162C505.512 974.162 512.942 993.862 495.468 996.483C477.994 999.103 455.702 989.419 453.478 982.371C451.253 975.322 456.091 967.488 456.091 967.488C456.091 967.488 462.406 960.806 473.926 958.193C485.446 955.579 498.442 966.372 502.171 966.005C505.901 965.638 510.35 965.638 510.35 963.78C510.35 961.922 528.185 944.83 540.439 942.965C552.694 941.1 563.112 946.673 568.318 945.557C573.523 944.441 582.43 929.58 588.766 926.988C588.766 926.988 565.726 926.988 559.022 921.782C559.022 921.782 595.742 914.431 593.525 900.758C597.326 902.983 599.285 905.69 599.148 908.398C598.781 916.195 591.718 925.483 591.718 925.483C595.893 927.755 599.874 930.368 603.619 933.295C609.192 937.766 620.712 952.994 612.922 961.202Z" fill="url(#paint44_linear_52_34)"/>
<path d="M525.96 933.677C518.508 938.515 493.438 931.085 492.12 931.452C490.802 931.819 483.768 932.928 483.768 932.928C483.902 934.613 483.595 936.304 482.878 937.835C482.161 939.366 481.058 940.685 479.678 941.662C474.84 945.197 455.918 950.208 445.486 943.714C444.529 943.129 443.651 942.425 442.872 941.618C442.93 941.33 442.987 941.021 443.066 940.733C445.68 929.58 449.77 922.51 462.038 922.898C469.246 923.06 476.239 925.388 482.105 929.58C483.135 928.993 484.27 928.613 485.446 928.464C487.67 928.097 491.4 928.831 491.4 928.831C491.4 928.831 486.562 917.311 499.198 912.494C507.974 909.132 517.284 912.761 522.158 915.295C526.752 920.623 531.857 929.839 525.96 933.677Z" fill="url(#paint45_linear_52_34)"/>
<path d="M559.217 908.772C549 910.637 541.742 909.153 538.402 903.566C538.322 903.447 538.257 903.319 538.207 903.185C539.266 900.305 543.47 897.482 554.566 896.157C564.646 894.948 573.322 895.2 580.277 896.366C584.122 901.075 568.915 907.008 559.217 908.772Z" fill="url(#paint46_linear_52_34)"/>
<path d="M598.536 853.037C578.225 870.871 557.41 868.877 557.41 868.877C557.41 868.877 567.317 876.307 545.026 882.737C522.734 889.166 444.946 888.691 441.958 868.373L436.507 862.922C436.507 862.922 407.282 866.897 398.347 850.538C389.412 834.18 404.827 828.218 404.827 828.218L408.305 824.74C408.305 824.74 388.469 810.859 419.191 793.024C419.191 793.024 412.934 785.688 415.757 778.048C416.736 775.377 418.81 772.67 422.669 770.236C437.53 760.826 449.417 765.283 449.417 765.283L454.392 762.806C454.392 762.806 451.663 754.627 455.292 749.81C456.998 747.528 460.166 746.008 465.754 746.491C483.091 747.967 478.634 757.377 496.973 755.901C512.964 754.612 547.409 752.56 547.74 770.784C547.695 774.027 546.94 777.222 545.53 780.144C545.53 780.144 555.437 783.621 560.887 788.575C560.887 788.575 564.84 774.211 584.647 787.596C588.431 790.199 591.848 793.299 594.806 796.812C608.602 812.983 615.125 838.464 598.536 853.037Z" fill="url(#paint47_linear_52_34)"/>
<path style="mix-blend-mode:multiply" opacity="0.5" d="M598.536 853.037C578.225 870.871 557.41 868.877 557.41 868.877C557.41 868.877 567.317 876.307 545.026 882.737C522.734 889.166 444.946 888.691 441.958 868.373L436.507 862.922C436.507 862.922 407.282 866.897 398.347 850.538C389.412 834.18 404.827 828.218 404.827 828.218L408.305 824.74C408.305 824.74 411.761 816.309 431.093 813.832C450.425 811.356 468.245 824.74 468.245 824.74C468.245 824.74 445.925 835.648 464.767 845.556C483.61 855.463 525.247 855.463 534.139 845.059C543.031 834.655 536.134 826.72 536.134 826.72L543.564 825.741C543.564 825.741 557.424 830.198 564.379 822.264C571.334 814.329 564.379 799.944 574.769 796.495C579.089 795.055 587.009 795.055 594.85 796.804C608.602 812.983 615.125 838.464 598.536 853.037Z" fill="url(#paint48_linear_52_34)"/>
<path d="M547.733 770.805C542.743 783.859 507.01 780.288 497.945 775.968C487.555 771.014 484.834 759.631 480.607 759.631C476.381 759.631 463.018 761.856 457.07 755.404C455.306 753.482 454.91 751.581 455.263 749.839C456.97 747.556 460.138 746.037 465.725 746.519C483.062 747.995 478.606 757.406 496.944 755.93C512.964 754.634 547.409 752.582 547.733 770.805Z" fill="url(#paint49_linear_52_34)"/>
<path d="M444.19 777.717C439.272 780.633 423.029 783.132 415.735 778.099C416.714 775.428 418.788 772.72 422.647 770.287C437.508 760.876 449.395 765.333 449.395 765.333C450.374 768.055 449.647 774.506 444.19 777.717Z" fill="url(#paint50_linear_52_34)"/>
<path d="M442.08 798.288C439.106 812.781 398.225 825.036 398.225 825.036C398.225 825.036 393.041 838.082 383.76 837.672C383.76 837.672 388.217 862.577 364.061 865.183C339.905 867.789 317.614 855.888 316.138 842.51L307.958 839.169C307.958 839.169 296.806 855.895 277.106 839.169C277.106 839.169 262.627 830.623 264.11 819.47C265.493 809.008 273.118 806.395 274.054 806.107H274.147L273.427 802.766C273.427 802.766 251.107 811.694 252.979 798.676C254.851 785.659 263.023 780.842 263.023 780.842C263.023 780.842 256.421 777.12 265.694 767.342C267.193 765.809 268.783 764.366 270.454 763.022C286.43 750.026 315.418 758.565 315.418 758.565L319.507 757.845C319.507 757.845 311.695 750.047 323.597 746.707C335.498 743.366 362.246 745.209 364.471 758.594C365.083 762.259 365.587 765.024 365.99 767.119C367.049 772.67 367.43 773.455 367.43 773.455C367.43 773.455 387.497 760.459 407.923 762.302C414.967 763.026 421.684 765.641 427.363 769.869C437.659 777.285 444.031 788.884 442.08 798.288Z" fill="url(#paint51_linear_52_34)"/>
<path d="M365.947 767.054C359.302 771.511 347.861 773.39 338.911 772.274C325.03 770.546 322.301 762.115 322.301 762.115L318.096 765.088C318.096 765.088 314.618 777.472 305.712 779.949C296.806 782.426 277.222 782.923 268.272 774.744C267.207 773.855 266.399 772.697 265.933 771.39C265.467 770.083 265.36 768.675 265.622 767.313C267.121 765.78 268.711 764.337 270.382 762.993C286.358 749.997 315.346 758.536 315.346 758.536L319.435 757.816C319.435 757.816 311.623 750.019 323.525 746.678C335.426 743.337 362.174 745.18 364.399 758.565C365.04 762.194 365.544 764.959 365.947 767.054Z" fill="url(#paint52_linear_52_34)"/>
<path style="mix-blend-mode:multiply" opacity="0.5" d="M442.08 798.288C439.106 812.781 398.225 825.036 398.225 825.036C398.225 825.036 393.041 838.082 383.76 837.672C383.76 837.672 388.217 862.577 364.061 865.183C339.905 867.789 317.614 855.888 316.138 842.51L307.958 839.169C307.958 839.169 296.806 855.895 277.106 839.169C277.106 839.169 262.627 830.623 264.11 819.47C265.493 809.008 273.118 806.395 274.054 806.107H274.147C274.147 806.107 271.534 809.944 286.15 814.423C300.766 818.901 321.091 811.197 321.595 798.064L327.528 797.064C327.528 797.064 330.005 807.468 343.634 812.904C357.264 818.34 377.078 802.997 376.33 795.818C375.581 788.64 367.69 774.506 367.69 774.506H371.398C371.398 774.506 392.71 786.89 406.822 781.209C414.128 778.273 421.043 774.442 427.406 769.804C437.659 777.285 444.031 788.884 442.08 798.288Z" fill="url(#paint53_linear_52_34)"/>
<path d="M402.581 796.308L409.025 779.956L409.514 768.804L391.428 742.545L393.415 741.804L411.25 765.333L427.601 734.373L435.78 735.359L413.978 766.824L415.217 783.175L412.74 795.069L402.581 796.308Z" fill="#10012B"/>
<path d="M510.847 834.331C503.035 842.51 496.714 847.349 469.224 853.663C441.734 859.977 414.216 849.573 412.74 848.457C411.264 847.341 403.445 847.341 403.445 847.341C403.445 847.341 410.875 867.041 393.401 869.661C375.926 872.282 353.635 862.598 351.41 855.549C349.186 848.501 354.024 840.667 354.024 840.667C354.024 840.667 346.212 837.326 345.478 833.985C345.478 833.985 338.774 825.518 340.812 814.805C340.87 814.517 340.927 814.207 341.006 813.919C343.62 802.766 347.71 795.696 359.978 796.084C367.186 796.246 374.179 798.574 380.045 802.766C381.075 802.179 382.21 801.8 383.386 801.65C385.61 801.283 389.34 802.017 389.34 802.017C389.34 802.017 384.502 790.497 397.138 785.68C405.914 782.318 415.224 785.947 420.098 788.481C421.277 789.086 422.419 789.759 423.518 790.497C424.959 789.137 426.771 788.235 428.724 787.905C431.698 787.538 440.244 785.292 440.244 785.292C440.244 785.292 434.599 780.72 436.154 776.364C437.213 773.484 441.418 770.661 452.513 769.336C462.593 768.127 471.269 768.379 478.224 769.545C483.811 770.503 488.304 772.058 491.472 773.959C495.274 776.184 497.232 778.891 497.095 781.598C496.728 789.396 489.665 798.684 489.665 798.684C493.84 800.956 497.821 803.568 501.566 806.496C507.125 810.924 518.645 826.152 510.847 834.331Z" fill="url(#paint54_linear_52_34)"/>
<path style="mix-blend-mode:multiply" opacity="0.5" d="M510.847 834.331C503.035 842.51 496.714 847.349 469.224 853.663C441.734 859.977 414.216 849.573 412.74 848.457C411.264 847.341 403.445 847.341 403.445 847.341C403.445 847.341 410.875 867.041 393.401 869.661C375.926 872.282 353.635 862.598 351.41 855.549C349.186 848.501 354.024 840.667 354.024 840.667C354.024 840.667 360.338 833.985 371.858 831.372C383.378 828.758 396.374 839.551 400.104 839.184C403.834 838.817 408.283 838.817 408.283 836.959C408.283 835.101 426.118 818.009 438.372 816.144C450.626 814.279 461.045 819.852 466.25 818.736C471.456 817.62 480.362 802.759 486.698 800.167C486.698 800.167 463.658 800.167 456.955 794.961C456.955 794.961 493.675 787.61 491.458 773.937C495.259 776.162 497.218 778.869 497.081 781.576C496.714 789.374 489.65 798.662 489.65 798.662C493.826 800.934 497.807 803.547 501.552 806.474C507.125 810.924 518.645 826.152 510.847 834.331Z" fill="url(#paint55_linear_52_34)"/>
<path d="M423.893 806.834C416.441 811.672 391.37 804.242 390.053 804.609C388.735 804.976 381.701 806.085 381.701 806.085C381.834 807.771 381.528 809.462 380.811 810.993C380.094 812.524 378.991 813.842 377.611 814.819C372.773 818.354 353.851 823.365 343.418 816.871C342.462 816.286 341.584 815.582 340.805 814.776C340.862 814.488 340.92 814.178 340.999 813.89C343.613 802.737 347.702 795.667 359.971 796.056C367.179 796.217 374.172 798.546 380.038 802.737C381.067 802.15 382.202 801.771 383.378 801.621C385.603 801.254 389.333 801.988 389.333 801.988C389.333 801.988 384.494 790.468 397.13 785.652C405.907 782.289 415.217 785.918 420.091 788.452C424.685 793.78 429.79 802.996 423.893 806.834Z" fill="url(#paint56_linear_52_34)"/>
<path d="M457.15 781.922C446.933 783.787 439.675 782.304 436.334 776.716C436.255 776.597 436.189 776.469 436.14 776.335C437.198 773.455 441.403 770.632 452.498 769.308C462.578 768.098 471.254 768.35 478.21 769.516C482.047 774.232 466.841 780.165 457.15 781.922Z" fill="url(#paint57_linear_52_34)"/>
<path d="M496.469 726.194C476.158 744.028 455.342 742.034 455.342 742.034C455.342 742.034 465.25 749.464 442.958 755.894C420.667 762.323 342.878 761.848 339.89 741.53L334.44 736.079C334.44 736.079 305.215 740.054 296.28 723.695C287.345 707.337 302.76 701.375 302.76 701.375L306.238 697.898C306.238 697.898 286.402 684.016 317.124 666.182C317.124 666.182 310.867 658.845 313.69 651.206C314.669 648.534 316.742 645.827 320.602 643.394C335.462 633.983 347.35 638.44 347.35 638.44L352.325 635.963C352.325 635.963 349.596 627.784 353.225 622.967C354.931 620.685 358.099 619.166 363.686 619.648C381.024 621.124 376.567 630.534 394.906 629.058C410.897 627.77 445.342 625.718 445.673 643.941C445.627 647.185 444.873 650.379 443.462 653.301C443.462 653.301 453.37 656.778 458.82 661.732C458.82 661.732 462.773 647.368 482.58 660.753C486.364 663.356 489.781 666.456 492.739 669.969C506.527 686.162 513.058 711.621 496.469 726.194Z" fill="url(#paint58_linear_52_34)"/>
<path style="mix-blend-mode:multiply" opacity="0.5" d="M496.469 726.194C476.158 744.028 455.342 742.034 455.342 742.034C455.342 742.034 465.25 749.464 442.958 755.894C420.667 762.324 342.878 761.848 339.89 741.53L334.44 736.079C334.44 736.079 305.215 740.054 296.28 723.695C287.345 707.337 302.76 701.375 302.76 701.375L306.238 697.898C306.238 697.898 309.694 689.467 329.026 686.99C348.358 684.513 366.178 697.898 366.178 697.898C366.178 697.898 343.858 708.806 362.7 718.713C381.542 728.62 423.18 728.62 432.072 718.216C440.964 707.812 434.066 699.878 434.066 699.878L441.497 698.899C441.497 698.899 455.357 703.355 462.312 695.421C469.267 687.487 462.312 673.101 472.702 669.652C477.022 668.212 484.942 668.212 492.782 669.962C506.527 686.162 513.058 711.621 496.469 726.194Z" fill="url(#paint59_linear_52_34)"/>
<path d="M445.68 643.962C440.69 657.016 404.957 653.445 395.892 649.125C385.502 644.171 382.781 632.788 378.554 632.788C374.328 632.788 360.958 635.042 355.003 628.562C353.239 626.639 352.843 624.738 353.196 622.996C354.902 620.714 358.07 619.194 363.658 619.677C380.995 621.153 376.538 630.563 394.877 629.087C410.897 627.791 445.342 625.739 445.68 643.962Z" fill="url(#paint60_linear_52_34)"/>
<path d="M342.122 650.882C337.205 653.798 320.962 656.296 313.668 651.263C314.647 648.592 316.721 645.885 320.58 643.451C335.441 634.041 347.328 638.498 347.328 638.498C348.307 641.212 347.573 647.663 342.122 650.882Z" fill="url(#paint61_linear_52_34)"/>
<path d="M151.308 812.673C150.242 817.605 145.548 822.033 140.054 825.633C136.181 828.115 132.134 830.314 127.944 832.214C116.424 837.528 96.2208 834.612 96.2208 834.612C96.2208 834.612 93.4488 838.327 91.5768 839.047C89.7048 839.767 49.4928 842.402 36.8136 836.62C24.1344 830.839 31.3488 827.901 31.3488 827.901L26.4096 825.965C26.4096 825.965 11.7648 833.165 -5.328 830.465C-22.4208 827.765 -30.42 817.504 -30.3984 805.574C-30.3768 793.644 -24.3792 797.517 -24.3792 797.517C-24.3792 797.517 -27.3168 786.458 -20.9304 776.342C-14.544 766.226 6.3288 761.539 6.3288 761.539C6.3288 761.539 58.0824 757.118 80.28 760.739C102.478 764.361 139.19 790.98 148.874 803.623C151.315 806.769 151.92 809.808 151.308 812.673Z" fill="url(#paint62_linear_52_34)"/>
<path style="mix-blend-mode:multiply" opacity="0.5" d="M122.018 824.092C125.222 825.993 133.783 825.929 140.054 825.597C136.181 828.079 132.134 830.278 127.944 832.178C116.424 837.492 96.2208 834.576 96.2208 834.576C96.2208 834.576 93.4488 838.291 91.5768 839.011C89.7048 839.731 49.4928 842.366 36.8136 836.585C24.1344 830.803 31.3488 827.865 31.3488 827.865L26.4096 825.928C26.4096 825.928 11.7648 833.129 -5.328 830.428C-22.4208 827.728 -30.42 817.469 -30.3984 805.538C-30.3768 793.608 -24.3792 797.481 -24.3792 797.481C-24.3792 797.481 -27.3168 786.422 -20.9304 776.306C-14.544 766.19 6.3288 761.503 6.3288 761.503C6.3288 761.503 58.0824 757.082 80.28 760.704C102.478 764.325 139.19 790.944 148.874 803.587C151.301 806.762 151.92 809.8 151.301 812.666C149.223 813.383 147.071 813.866 144.886 814.106C136.282 815.042 116.935 821.054 122.018 824.092Z" fill="url(#paint63_linear_52_34)"/>
<path d="M58.9392 883.788C59.5872 882.146 69.3792 862.807 69.3792 862.807L66.24 829.205L72.4032 794.803L75.2832 794.608L69.9696 824.236L89.4096 811.903L95.1696 799.569L97.6752 799.317L92.2104 818.037L71.388 832.236L78.084 861.554L78.4368 865.485L68.7528 890.117L58.9392 883.788Z" fill="#10012B"/>
<path d="M153.072 744.936L164.966 735.467L168.919 719.303L170.683 719.267L168.034 736.015L158.472 750.119L153.072 744.936Z" fill="#10012B"/>
<path d="M48.1104 712.766L34.2864 689.899L36.3528 688.156L57.3048 714.415L48.1104 712.766Z" fill="#10012B"/>
<path d="M60.3864 708.986L64.9512 689.416C66.5928 690.064 63.2088 710.901 63.2088 710.901L60.3864 708.986Z" fill="#10012B"/>
<path d="M119.002 665.649C116.539 678.177 107.654 696.213 93.42 698.625C74.5632 701.8 47.0592 693.131 47.0592 693.131L39.4704 693.643C39.4704 693.643 40.1904 707.834 12.06 702.787C-16.0704 697.739 -42.48 687.861 -40.7304 665.21C-38.9808 642.558 -19.404 632.471 -19.404 632.471L-18.9144 629.742C-18.9144 629.742 -24.9696 625.422 -23.5656 619.734C-22.7088 616.257 -19.0512 612.282 -9.468 608.459C-4.41345 606.703 0.848529 605.614 6.1848 605.219C10.8178 604.813 15.4839 605.009 20.0664 605.802C35.496 608.567 38.4912 612.844 38.4912 612.844L44.0136 613.362C44.0136 613.362 43.0416 600.546 60.9408 599.999C62.3879 599.968 63.8346 600.076 65.2608 600.323C82.6344 603.095 104.09 623.723 103.867 629.728C103.644 636.244 102.614 639.347 102.614 639.347C104.351 640.318 106.034 641.383 107.654 642.537C112.032 645.59 117.878 650.543 119.333 655.929C119.768 657.989 119.837 660.109 119.534 662.193C119.426 663.28 119.254 664.447 119.002 665.649Z" fill="url(#paint64_linear_52_34)"/>
<path d="M119.002 665.649C111.917 662.819 100.282 653.15 101.585 647.814C102.47 644.301 105.286 642.99 107.669 642.53C112.046 645.582 117.893 650.536 119.347 655.922C119.783 657.982 119.851 660.102 119.549 662.186C119.426 663.28 119.254 664.446 119.002 665.649Z" fill="url(#paint65_linear_52_34)"/>
<path d="M102.629 639.362C95.1423 635.353 87.972 630.779 81.18 625.682C71.3088 618.042 68.4576 614.27 75.2832 608.913C75.2832 608.913 63.1728 605.147 65.268 600.345C82.6416 603.117 104.098 623.745 103.874 629.75C103.68 636.237 102.629 639.362 102.629 639.362Z" fill="url(#paint66_linear_52_34)"/>
<path d="M38.4912 612.844C35.5921 614.223 32.447 615.01 29.2399 615.159C26.0328 615.307 22.8284 614.814 19.8144 613.708C13.248 611.332 8.1936 607.948 6.192 605.219C10.825 604.813 15.4911 605.009 20.0736 605.802C35.496 608.567 38.4912 612.844 38.4912 612.844Z" fill="url(#paint67_linear_52_34)"/>
<path style="mix-blend-mode:multiply" opacity="0.5" d="M93.42 698.625C74.5632 701.8 47.0592 693.131 47.0592 693.131L39.4704 693.643C39.4704 693.643 40.1904 707.834 12.06 702.787C-16.0704 697.739 -42.48 687.861 -40.7304 665.21C-38.9808 642.558 -19.404 632.471 -19.404 632.471L-18.9144 629.742C-18.9144 629.742 -24.9696 625.422 -23.5656 619.734C-13.248 612.232 5.42881 611.598 5.42881 611.598C-5.3064 621.858 14.652 633.414 27.9144 640.478C41.1768 647.541 75.7728 640.154 75.7728 640.154L81.0648 642.026C81.0648 642.026 70.3584 654.633 86.2704 662.647C97.128 668.119 111.47 664.806 119.556 662.186C118.202 674.555 109.022 695.975 93.42 698.625Z" fill="url(#paint68_linear_52_34)"/>
<path d="M236.203 706.747C234.511 714.177 227.268 715.387 227.268 715.387C227.268 715.387 224.798 727.238 213.466 723.811C213.466 723.811 217.224 732.22 204.322 731.651C191.419 731.083 181.786 722.003 181.786 722.003C181.786 722.003 172.721 729.513 157.99 729.326C143.258 729.139 99.7128 707.294 92.268 701.728C84.8232 696.163 81.7704 695.637 87.6096 682.619C87.6096 682.619 78.4728 666.923 87.372 660.436C88.3368 659.733 89.3807 659.146 90.4824 658.686C99.6336 654.64 112.918 657.549 115.884 660.263C117.688 661.97 119.651 663.501 121.745 664.835L126.41 664.252C126.41 664.252 123.228 655.475 132.552 650.37C134.188 649.503 135.917 648.827 137.707 648.354C153.23 644.106 185.515 650.255 185.515 650.255C187.178 649.246 188.995 648.516 190.894 648.095C195.048 647.116 201.175 647.066 207.749 651.753C215.834 657.513 223.79 672.302 227.779 683.059C229.63 688.041 230.616 692.159 230.371 694.132C229.759 699.251 228.002 701.282 227.412 701.829C227.326 701.901 227.282 701.951 227.239 701.98C227.772 701.836 237.845 699.525 236.203 706.747Z" fill="url(#paint69_linear_52_34)"/>
<path style="mix-blend-mode:multiply" opacity="0.5" d="M236.203 706.747C234.511 714.177 227.268 715.387 227.268 715.387C227.268 715.387 224.798 727.238 213.466 723.811C213.466 723.811 217.224 732.22 204.322 731.651C191.419 731.083 181.786 722.003 181.786 722.003C181.786 722.003 172.721 729.513 157.99 729.326C143.258 729.139 99.7128 707.294 92.268 701.728C84.8232 696.163 81.7704 695.637 87.6096 682.619C87.6096 682.619 78.4728 666.923 87.372 660.436C88.3368 659.733 89.3807 659.146 90.4824 658.686C94.4208 673.087 116.568 671.409 116.568 671.409C116.568 671.409 128.088 688.012 141.386 689.913C154.685 691.814 167.645 676.802 167.645 676.802L180.266 679.538C180.266 679.538 183.262 688.977 194.666 693.362C206.071 697.747 227.225 702.002 227.225 702.002C227.772 701.836 237.845 699.525 236.203 706.747Z" fill="url(#paint70_linear_52_34)"/>
<path d="M227.779 683.044C224.496 682.324 215.539 679.977 209.254 676.039C201.456 671.114 187.337 653.128 189.05 650.118C189.553 649.338 190.175 648.64 190.894 648.052C195.048 647.073 201.175 647.022 207.749 651.71C215.827 657.506 223.783 672.287 227.779 683.044Z" fill="url(#paint71_linear_52_34)"/>
<path d="M178.027 657.016C180.641 658.938 181.433 661.516 179.258 662.92C175.277 665.49 158.45 667.852 158.695 661.343C158.866 660.619 159.16 659.929 159.566 659.306C158.767 659.306 158.047 659.306 157.406 659.248C149.486 658.758 136.073 658.002 132.804 652.732C132.569 652.385 132.422 651.986 132.377 651.569C132.332 651.152 132.389 650.731 132.545 650.342C134.18 649.475 135.91 648.798 137.7 648.326C153.223 644.078 185.508 650.226 185.508 650.226C187.243 653.344 183.449 655.554 178.027 657.016Z" fill="url(#paint72_linear_52_34)"/>
<path d="M191.578 776.68C190.407 779.225 188.685 781.478 186.538 783.276C172.138 795.696 165.074 795.825 165.074 795.825C165.074 795.825 170.114 804.228 153.929 808.36C137.743 812.493 124.078 804.883 114.962 806.064C105.847 807.244 95.364 808.18 95.364 808.18C95.364 808.18 76.1112 800.498 70.344 801.355C64.5768 802.212 53.2152 805.315 38.2752 799.821C23.3352 794.328 24.372 780.482 24.372 780.482L18.9144 774.348C18.9144 774.348 16.2144 784.154 4.8096 779.762C-6.5952 775.37 -32.2992 756.722 -5.2704 741.868C-5.2704 741.868 -8.1504 726.813 3.9096 716.798C15.9696 706.783 33.84 711.851 33.84 711.851C35.8128 711.477 42.9264 708.777 51.4656 707.258C59.7456 705.76 69.3648 705.364 76.968 709.267C84.0591 712.799 91.4731 715.641 99.108 717.755C105.35 719.512 109.663 720.283 109.663 720.283C112.293 717.576 115.601 715.624 119.241 714.629C122.881 713.634 126.722 713.632 130.363 714.623C143.381 717.899 153.835 724.912 156.11 730.463C158.386 736.015 155.066 741.537 155.066 741.537L160.279 743.87C160.279 743.87 173.47 738.261 180.576 745.634C184.042 749.198 187.011 753.213 189.403 757.572C192.593 763.512 194.4 770.402 191.578 776.68Z" fill="url(#paint73_linear_52_34)"/>
<path style="mix-blend-mode:multiply" opacity="0.5" d="M191.578 776.68C190.407 779.225 188.685 781.478 186.538 783.276C172.138 795.696 165.074 795.825 165.074 795.825C165.074 795.825 170.114 804.228 153.929 808.36C137.743 812.493 124.078 804.883 114.962 806.064C105.847 807.244 95.364 808.18 95.364 808.18C95.364 808.18 76.1112 800.498 70.344 801.355C64.5768 802.212 53.2152 805.315 38.2752 799.821C23.3352 794.328 24.372 780.482 24.372 780.482L18.9144 774.348C18.9144 774.348 16.2144 784.154 4.8096 779.762C-6.5952 775.37 -32.2992 756.722 -5.2704 741.868C-5.2704 741.868 -8.1504 726.813 3.9096 716.798C15.9696 706.783 33.84 711.851 33.84 711.851C33.84 711.851 24.264 716.222 26.928 726.907C29.592 737.591 59.1336 735.496 59.1336 735.496C59.1336 735.496 89.6328 753.604 101.534 757.816C108.585 760.37 116.133 761.245 123.581 760.372C123.581 760.372 109.814 768.458 126.806 775.716C143.798 782.973 170.215 774.708 161.302 759.76C161.302 759.76 177.394 757.816 189.382 757.6C192.593 763.512 194.4 770.402 191.578 776.68Z" fill="url(#paint74_linear_52_34)"/>
</g>
</g>
<defs>
<linearGradient id="paint0_linear_52_34" x1="1343.56" y1="749.839" x2="1409.31" y2="803.356" gradientUnits="userSpaceOnUse">
<stop stop-color="#5B0DF8"/>
<stop offset="1" stop-color="#7F07FF"/>
</linearGradient>
<linearGradient id="paint1_linear_52_34" x1="1367.18" y1="739.766" x2="1381.11" y2="755.188" gradientUnits="userSpaceOnUse">
<stop stop-color="#8B06FF"/>
<stop offset="1" stop-color="#7F0231" stop-opacity="0"/>
</linearGradient>
<linearGradient id="paint2_linear_52_34" x1="1323.17" y1="765.218" x2="1336.74" y2="782.498" gradientUnits="userSpaceOnUse">
<stop stop-color="#5B05EF"/>
<stop offset="1" stop-color="#7F0231" stop-opacity="0"/>
</linearGradient>
<linearGradient id="paint3_linear_52_34" x1="1376.7" y1="770.344" x2="1400.48" y2="812.954" gradientUnits="userSpaceOnUse">
<stop stop-color="#891BDD"/>
<stop offset="1" stop-color="#2F084E" stop-opacity="0"/>
</linearGradient>
<linearGradient id="paint4_linear_52_34" x1="1406.77" y1="696.803" x2="1438.54" y2="722.666" gradientUnits="userSpaceOnUse">
<stop stop-color="#5105E9"/>
<stop offset="1" stop-color="#7032EB"/>
</linearGradient>
<linearGradient id="paint5_linear_52_34" x1="1424.87" y1="711.563" x2="1437.26" y2="725.935" gradientUnits="userSpaceOnUse">
<stop stop-color="#891BDD"/>
<stop offset="1" stop-color="#2F084E" stop-opacity="0"/>
</linearGradient>
<linearGradient id="paint6_linear_52_34" x1="1392.02" y1="711.865" x2="1399.63" y2="719.109" gradientUnits="userSpaceOnUse">
<stop stop-color="#A170CC"/>
<stop offset="1" stop-color="#7F0231" stop-opacity="0"/>
</linearGradient>
<linearGradient id="paint7_linear_52_34" x1="1367.76" y1="633.587" x2="1431.98" y2="685.859" gradientUnits="userSpaceOnUse">
<stop stop-color="#8321B1"/>
<stop offset="1" stop-color="#36065B"/>
</linearGradient>
<linearGradient id="paint8_linear_52_34" x1="1403.19" y1="662.805" x2="1418.05" y2="689.56" gradientUnits="userSpaceOnUse">
<stop stop-color="#771BF9"/>
<stop offset="1" stop-color="#640AFF" stop-opacity="0"/>
</linearGradient>
<linearGradient id="paint9_linear_52_34" x1="1380.36" y1="609.914" x2="1413.06" y2="647.073" gradientUnits="userSpaceOnUse">
<stop stop-color="#A770CC"/>
<stop offset="1" stop-color="#7F0231" stop-opacity="0"/>
</linearGradient>
<linearGradient id="paint10_linear_52_34" x1="1340.5" y1="660.681" x2="1356.11" y2="684.47" gradientUnits="userSpaceOnUse">
<stop stop-color="#9C70CC"/>
<stop offset="1" stop-color="#7F0231" stop-opacity="0"/>
</linearGradient>
<linearGradient id="paint11_linear_52_34" x1="1013.64" y1="710.966" x2="1111.75" y2="886.365" gradientUnits="userSpaceOnUse">
<stop stop-color="#7721B1"/>
<stop offset="1" stop-color="#36025D"/>
</linearGradient>
<linearGradient id="paint12_linear_52_34" x1="1036.09" y1="715.66" x2="1073.75" y2="776.112" gradientUnits="userSpaceOnUse">
<stop stop-color="#5E16AB"/>
<stop offset="1" stop-color="#7F0231" stop-opacity="0"/>
</linearGradient>
<linearGradient id="paint13_linear_52_34" x1="1055.2" y1="778.315" x2="1102.28" y2="877.409" gradientUnits="userSpaceOnUse">
<stop stop-color="#5621B1"/>
<stop offset="1" stop-color="#5D0231" stop-opacity="0"/>
</linearGradient>
<linearGradient id="paint14_linear_52_34" x1="694.93" y1="873.722" x2="833.357" y2="960.698" gradientUnits="userSpaceOnUse">
<stop stop-color="#891BDD"/>
<stop offset="1" stop-color="#2F084E"/>
</linearGradient>
<linearGradient id="paint15_linear_52_34" x1="820.433" y1="932.589" x2="822.91" y2="985.603" gradientUnits="userSpaceOnUse">
<stop stop-color="#5D21B1"/>
<stop offset="1" stop-color="#39025D" stop-opacity="0"/>
</linearGradient>
<linearGradient id="paint16_linear_52_34" x1="700.121" y1="861.331" x2="754.625" y2="980.254" gradientUnits="userSpaceOnUse">
<stop stop-color="#261087"/>
<stop offset="0.13" stop-color="#360472" stop-opacity="0"/>
</linearGradient>
<linearGradient id="paint17_linear_52_34" x1="657.958" y1="927.384" x2="685.21" y2="985.848" gradientUnits="userSpaceOnUse">
<stop stop-color="#A170CC"/>
<stop offset="1" stop-color="#7F0231" stop-opacity="0"/>
</linearGradient>
<linearGradient id="paint18_linear_52_34" x1="828.209" y1="906.67" x2="865.368" y2="961.174" gradientUnits="userSpaceOnUse">
<stop stop-color="#5E16AB"/>
<stop offset="1" stop-color="#7F0231" stop-opacity="0"/>
</linearGradient>
<linearGradient id="paint19_linear_52_34" x1="910.317" y1="848.522" x2="981.043" y2="892.961" gradientUnits="userSpaceOnUse">
<stop stop-color="#891BDD"/>
<stop offset="1" stop-color="#2F084E"/>
</linearGradient>
<linearGradient id="paint20_linear_52_34" x1="911.822" y1="864.233" x2="930.031" y2="895.445" gradientUnits="userSpaceOnUse">
<stop stop-color="#5E16AB"/>
<stop offset="1" stop-color="#7F0231" stop-opacity="0"/>
</linearGradient>
<linearGradient id="paint21_linear_52_34" x1="997.711" y1="931.553" x2="968.479" y2="862.677" gradientUnits="userSpaceOnUse">
<stop stop-color="#5E24D0"/>
<stop offset="1" stop-color="#5D0231" stop-opacity="0"/>
</linearGradient>
<linearGradient id="paint22_linear_52_34" x1="943.177" y1="783.732" x2="1001.51" y2="862.763" gradientUnits="userSpaceOnUse">
<stop stop-color="#891BDD"/>
<stop offset="1" stop-color="#2F084E"/>
</linearGradient>
<linearGradient id="paint23_linear_52_34" x1="1009.53" y1="876.59" x2="986.676" y2="841.884" gradientUnits="userSpaceOnUse">
<stop stop-color="#8909B4"/>
<stop offset="1" stop-color="#5D0231" stop-opacity="0"/>
</linearGradient>
<linearGradient id="paint24_linear_52_34" x1="988.28" y1="814.116" x2="1001.03" y2="774.149" gradientUnits="userSpaceOnUse">
<stop stop-color="#841FD1"/>
<stop offset="1" stop-color="#5D0231" stop-opacity="0"/>
</linearGradient>
<linearGradient id="paint25_linear_52_34" x1="961.536" y1="777.694" x2="988.159" y2="809.727" gradientUnits="userSpaceOnUse">
<stop stop-color="#5E16AB"/>
<stop offset="1" stop-color="#7F0231" stop-opacity="0"/>
</linearGradient>
<linearGradient id="paint26_linear_52_34" x1="912.36" y1="815.477" x2="952.208" y2="849.913" gradientUnits="userSpaceOnUse">
<stop stop-color="#6207FF"/>
<stop offset="1" stop-color="#7F0231" stop-opacity="0"/>
</linearGradient>
<linearGradient id="paint27_linear_52_34" x1="1158.57" y1="780.273" x2="1225.95" y2="822.616" gradientUnits="userSpaceOnUse">
<stop stop-color="#6E21B1"/>
<stop offset="1" stop-color="#28025D"/>
</linearGradient>
<linearGradient id="paint28_linear_52_34" x1="1240.52" y1="829.449" x2="1118.13" y2="767.515" gradientUnits="userSpaceOnUse">
<stop stop-color="#8821B1"/>
<stop offset="1" stop-color="#5D0231" stop-opacity="0"/>
</linearGradient>
<linearGradient id="paint29_linear_52_34" x1="1128.55" y1="797.899" x2="1240.53" y2="868.257" gradientUnits="userSpaceOnUse">
<stop stop-color="#891BDD"/>
<stop offset="1" stop-color="#2F084E"/>
</linearGradient>
<linearGradient id="paint30_linear_52_34" x1="1080.49" y1="861.122" x2="1096.09" y2="879.453" gradientUnits="userSpaceOnUse">
<stop stop-color="#A470CC"/>
<stop offset="1" stop-color="#7F0231" stop-opacity="0"/>
</linearGradient>
<linearGradient id="paint31_linear_52_34" x1="1119.9" y1="831.782" x2="1138.98" y2="865.975" gradientUnits="userSpaceOnUse">
<stop stop-color="#7F09E7"/>
<stop offset="1" stop-color="#7F0231" stop-opacity="0"/>
</linearGradient>
<linearGradient id="paint32_linear_52_34" x1="1223.66" y1="860.654" x2="1261.56" y2="955.788" gradientUnits="userSpaceOnUse">
<stop stop-color="#7721B1"/>
<stop offset="1" stop-color="#5D0231" stop-opacity="0"/>
</linearGradient>
<linearGradient id="paint33_linear_52_34" x1="1102.98" y1="851.208" x2="1118.1" y2="865.651" gradientUnits="userSpaceOnUse">
<stop stop-color="#680CB9"/>
<stop offset="1" stop-color="#5D0231" stop-opacity="0"/>
</linearGradient>
<linearGradient id="paint34_linear_52_34" x1="1140.85" y1="713.903" x2="1239.44" y2="794.169" gradientUnits="userSpaceOnUse">
<stop stop-color="#891BDD"/>
<stop offset="1" stop-color="#2F084E"/>
</linearGradient>
<linearGradient id="paint35_linear_52_34" x1="1149.33" y1="665.901" x2="1217.34" y2="715.696" gradientUnits="userSpaceOnUse">
<stop stop-color="#9C70CC"/>
<stop offset="1" stop-color="#7F0231" stop-opacity="0"/>
</linearGradient>
<linearGradient id="paint36_linear_52_34" x1="1124.63" y1="741.94" x2="1159.56" y2="775.391" gradientUnits="userSpaceOnUse">
<stop stop-color="#9670CC"/>
<stop offset="1" stop-color="#7F0231" stop-opacity="0"/>
</linearGradient>
<linearGradient id="paint37_linear_52_34" x1="1216.25" y1="788.064" x2="1228.14" y2="819.772" gradientUnits="userSpaceOnUse">
<stop stop-color="#6E1AE2"/>
<stop offset="1" stop-color="#5D0231" stop-opacity="0"/>
</linearGradient>
<linearGradient id="paint38_linear_52_34" x1="1232.51" y1="751.272" x2="1279.33" y2="737.894" gradientUnits="userSpaceOnUse">
<stop stop-color="#6A10CA"/>
<stop offset="1" stop-color="#5D0231" stop-opacity="0"/>
</linearGradient>
<linearGradient id="paint39_linear_52_34" x1="1207.73" y1="720.52" x2="1247.86" y2="706.149" gradientUnits="userSpaceOnUse">
<stop stop-color="#530BB8"/>
<stop offset="1" stop-color="#5D0231" stop-opacity="0"/>
</linearGradient>
<linearGradient id="paint40_linear_52_34" x1="446.494" y1="869.539" x2="452.822" y2="977.172" gradientUnits="userSpaceOnUse">
<stop stop-color="#891BDD"/>
<stop offset="1" stop-color="#2F084E"/>
</linearGradient>
<linearGradient id="paint41_linear_52_34" x1="415.411" y1="876.588" x2="420.862" y2="918.708" gradientUnits="userSpaceOnUse">
<stop stop-color="#4E0AEC"/>
<stop offset="1" stop-color="#7F0231" stop-opacity="0"/>
</linearGradient>
<linearGradient id="paint42_linear_52_34" x1="454.86" y1="925.85" x2="456.847" y2="967.474" gradientUnits="userSpaceOnUse">
<stop stop-color="#6A0FE8"/>
<stop offset="1" stop-color="#5D0231" stop-opacity="0"/>
</linearGradient>
<linearGradient id="paint43_linear_52_34" x1="466.87" y1="907.181" x2="535.867" y2="950.532" gradientUnits="userSpaceOnUse">
<stop stop-color="#891BDD"/>
<stop offset="1" stop-color="#550A90"/>
</linearGradient>
<linearGradient id="paint44_linear_52_34" x1="527.537" y1="930.451" x2="536.458" y2="978.389" gradientUnits="userSpaceOnUse">
<stop stop-color="#7718C0"/>
<stop offset="1" stop-color="#550A90" stop-opacity="0"/>
</linearGradient>
<linearGradient id="paint45_linear_52_34" x1="481.356" y1="915.468" x2="491.018" y2="957.458" gradientUnits="userSpaceOnUse">
<stop offset="0.045" stop-color="#9900FF"/>
<stop offset="1" stop-color="#6508D6" stop-opacity="0"/>
</linearGradient>
<linearGradient id="paint46_linear_52_34" x1="556.891" y1="894.249" x2="565.258" y2="913.387" gradientUnits="userSpaceOnUse">
<stop stop-color="#AA70CC"/>
<stop offset="1" stop-color="#7F0231" stop-opacity="0"/>
</linearGradient>
<linearGradient id="paint47_linear_52_34" x1="498.938" y1="760.617" x2="503.395" y2="870.245" gradientUnits="userSpaceOnUse">
<stop stop-color="#8838F8"/>
<stop offset="1" stop-color="#590C94"/>
</linearGradient>
<linearGradient id="paint48_linear_52_34" x1="501.732" y1="833.02" x2="506.938" y2="873.895" gradientUnits="userSpaceOnUse">
<stop stop-color="#7E12DD"/>
<stop offset="1" stop-color="#5D0231" stop-opacity="0"/>
</linearGradient>
<linearGradient id="paint49_linear_52_34" x1="501.761" y1="756.916" x2="499.529" y2="784.413" gradientUnits="userSpaceOnUse">
<stop stop-color="#A170CC"/>
<stop offset="1" stop-color="#7F0231" stop-opacity="0"/>
</linearGradient>
<linearGradient id="paint50_linear_52_34" x1="429.826" y1="765.736" x2="447.149" y2="803.529" gradientUnits="userSpaceOnUse">
<stop stop-color="#A170CC"/>
<stop offset="1" stop-color="#7F0231" stop-opacity="0"/>
</linearGradient>
<linearGradient id="paint51_linear_52_34" x1="344.426" y1="742.696" x2="350.755" y2="850.329" gradientUnits="userSpaceOnUse">
<stop stop-color="#7B39ED"/>
<stop offset="1" stop-color="#5412B1"/>
</linearGradient>
<linearGradient id="paint52_linear_52_34" x1="313.344" y1="749.745" x2="318.794" y2="791.865" gradientUnits="userSpaceOnUse">
<stop stop-color="#490DFF"/>
<stop offset="1" stop-color="#7F0231" stop-opacity="0"/>
</linearGradient>
<linearGradient id="paint53_linear_52_34" x1="352.793" y1="799.008" x2="354.773" y2="840.624" gradientUnits="userSpaceOnUse">
<stop stop-color="#780CD6"/>
<stop offset="1" stop-color="#5D0231" stop-opacity="0"/>
</linearGradient>
<linearGradient id="paint54_linear_52_34" x1="364.802" y1="780.338" x2="433.8" y2="823.689" gradientUnits="userSpaceOnUse">
<stop stop-color="#891BDD"/>
<stop offset="1" stop-color="#550A91"/>
</linearGradient>
<linearGradient id="paint55_linear_52_34" x1="425.47" y1="803.608" x2="434.383" y2="851.546" gradientUnits="userSpaceOnUse">
<stop stop-color="#4911CC"/>
<stop offset="1" stop-color="#5D0231" stop-opacity="0"/>
</linearGradient>
<linearGradient id="paint56_linear_52_34" x1="379.289" y1="788.625" x2="388.951" y2="830.616" gradientUnits="userSpaceOnUse">
<stop offset="0.045" stop-color="#9900FF"/>
<stop offset="1" stop-color="#6508D6" stop-opacity="0"/>
</linearGradient>
<linearGradient id="paint57_linear_52_34" x1="454.824" y1="767.407" x2="463.183" y2="786.544" gradientUnits="userSpaceOnUse">
<stop stop-color="#5C0BFF"/>
<stop offset="1" stop-color="#7F0231" stop-opacity="0"/>
</linearGradient>
<linearGradient id="paint58_linear_52_34" x1="396.864" y1="633.774" x2="401.328" y2="743.402" gradientUnits="userSpaceOnUse">
<stop stop-color="#9E30DD"/>
<stop offset="1" stop-color="#36025D"/>
</linearGradient>
<linearGradient id="paint59_linear_52_34" x1="399.665" y1="706.178" x2="404.863" y2="747.052" gradientUnits="userSpaceOnUse">
<stop stop-color="#680EB8"/>
<stop offset="1" stop-color="#5D0231" stop-opacity="0"/>
</linearGradient>
<linearGradient id="paint60_linear_52_34" x1="399.694" y1="630.066" x2="397.462" y2="657.57" gradientUnits="userSpaceOnUse">
<stop stop-color="#5609F0"/>
<stop offset="1" stop-color="#7F0231" stop-opacity="0"/>
</linearGradient>
<linearGradient id="paint61_linear_52_34" x1="327.758" y1="638.894" x2="345.082" y2="676.687" gradientUnits="userSpaceOnUse">
<stop stop-color="#A770CC"/>
<stop offset="1" stop-color="#7F0231" stop-opacity="0"/>
</linearGradient>
<linearGradient id="paint62_linear_52_34" x1="85.4667" y1="760.346" x2="44.3955" y2="830.668" gradientUnits="userSpaceOnUse">
<stop stop-color="#891BDD"/>
<stop offset="1" stop-color="#2F084E"/>
</linearGradient>
<linearGradient id="paint63_linear_52_34" x1="81.4562" y1="784.643" x2="27.9223" y2="822.507" gradientUnits="userSpaceOnUse">
<stop stop-color="#621AC7"/>
<stop offset="1" stop-color="#841FEF" stop-opacity="0"/>
</linearGradient>
<linearGradient id="paint64_linear_52_34" x1="46.7824" y1="609.876" x2="35.3119" y2="693.271" gradientUnits="userSpaceOnUse">
<stop stop-color="#891BDD"/>
<stop offset="1" stop-color="#2F084E"/>
</linearGradient>
<linearGradient id="paint65_linear_52_34" x1="113.587" y1="647.677" x2="103.591" y2="675.005" gradientUnits="userSpaceOnUse">
<stop stop-color="#9C70CC"/>
<stop offset="1" stop-color="#7F0231" stop-opacity="0"/>
</linearGradient>
<linearGradient id="paint66_linear_52_34" x1="86.9289" y1="611.695" x2="73.2375" y2="649.114" gradientUnits="userSpaceOnUse">
<stop stop-color="#A770CC"/>
<stop offset="1" stop-color="#7F0231" stop-opacity="0"/>
</linearGradient>
<linearGradient id="paint67_linear_52_34" x1="23.04" y1="607.136" x2="18.1824" y2="620.405" gradientUnits="userSpaceOnUse">
<stop stop-color="#A470CC"/>
<stop offset="1" stop-color="#7F0231" stop-opacity="0"/>
</linearGradient>
<linearGradient id="paint68_linear_52_34" x1="58.1622" y1="628.418" x2="22.0032" y2="688.963" gradientUnits="userSpaceOnUse">
<stop stop-color="#4A00F5"/>
<stop offset="1" stop-color="#5D0231" stop-opacity="0"/>
</linearGradient>
<linearGradient id="paint69_linear_52_34" x1="164.619" y1="652.755" x2="155.513" y2="718.953" gradientUnits="userSpaceOnUse">
<stop stop-color="#891BDD"/>
<stop offset="1" stop-color="#2F084E"/>
</linearGradient>
<linearGradient id="paint70_linear_52_34" x1="162.576" y1="679.665" x2="150.277" y2="711.68" gradientUnits="userSpaceOnUse">
<stop stop-color="#6721B1"/>
<stop offset="1" stop-color="#5D0231" stop-opacity="0"/>
</linearGradient>
<linearGradient id="paint71_linear_52_34" x1="211.397" y1="662.14" x2="195.055" y2="686.634" gradientUnits="userSpaceOnUse">
<stop stop-color="#5D0CE9"/>
<stop offset="1" stop-color="#7F0231" stop-opacity="0"/>
</linearGradient>
<linearGradient id="paint72_linear_52_34" x1="161.489" y1="645.114" x2="149.093" y2="678.983" gradientUnits="userSpaceOnUse">
<stop stop-color="#7004F3"/>
<stop offset="1" stop-color="#7F0231" stop-opacity="0"/>
</linearGradient>
<linearGradient id="paint73_linear_52_34" x1="93.8264" y1="720.391" x2="83.465" y2="795.719" gradientUnits="userSpaceOnUse">
<stop stop-color="#891BDD"/>
<stop offset="1" stop-color="#2F084E"/>
</linearGradient>
<linearGradient id="paint74_linear_52_34" x1="95.2746" y1="749.617" x2="66.2647" y2="795.738" gradientUnits="userSpaceOnUse">
<stop stop-color="#3700FF"/>
<stop offset="1" stop-color="#8F3AEA" stop-opacity="0"/>
</linearGradient>
<clipPath id="clip0_52_34">
<rect width="1440" height="960" fill="white"/>
</clipPath>
</defs>
</svg>
