<svg width="1440" height="960" viewBox="0 0 1440 960" fill="none" xmlns="http://www.w3.org/2000/svg">
<g clip-path="url(#clip0_19_392)">
<path d="M1440 0H0V960H1440V0Z" fill="url(#paint0_linear_19_392)"/>
<mask id="mask0_19_392" style="mask-type:luminance" maskUnits="userSpaceOnUse" x="0" y="0" width="1440" height="960">
<path d="M1440 0H0V960H1440V0Z" fill="white"/>
</mask>
<g mask="url(#mask0_19_392)">
<path style="mix-blend-mode:overlay" opacity="0.25" d="M-8.424 551.291C-8.424 551.291 311.162 494.807 344.606 479.197C378.05 463.588 795.002 403.388 861.89 381.09C928.778 358.791 1499.58 75.6002 1499.58 75.6002L1548.63 175.932C1548.63 175.932 893.11 394.439 868.586 401.127C844.063 407.816 351.295 490.321 344.606 492.575C337.918 494.828 -1.98 552.155 -1.98 552.155L-8.424 551.291Z" fill="url(#paint1_linear_19_392)"/>
<path style="mix-blend-mode:overlay" opacity="0.25" d="M-5.4504 454.667C-5.4504 454.667 607.68 307.513 734.803 240.617C861.926 173.722 982.296 104.609 1000.14 88.9994C1017.98 73.3898 1118.3 -29.1745 1118.3 -29.1745L1046.95 -42.5521C1046.95 -42.5521 987.991 52.3297 965.693 74.6282C943.394 96.9266 676.332 242.605 649.577 255.982C622.822 269.36 -3.9672 450.721 -3.9672 450.721L-5.4504 454.667Z" fill="url(#paint2_linear_19_392)"/>
<path d="M729.888 437.283C733.917 436.504 736.71 433.423 736.126 430.402C735.542 427.38 731.802 425.561 727.773 426.34C723.744 427.119 720.951 430.2 721.535 433.222C722.12 436.244 725.859 438.062 729.888 437.283Z" fill="white" fill-opacity="0.5"/>
<path d="M438.093 564.716C438.161 562.399 435.713 560.446 432.625 560.355C429.536 560.264 426.977 562.069 426.909 564.386C426.84 566.703 429.289 568.656 432.377 568.747C435.465 568.838 438.024 567.033 438.093 564.716Z" fill="white" fill-opacity="0.5"/>
<path d="M228.917 436.714C228.986 434.397 226.538 432.445 223.449 432.354C220.361 432.262 217.802 434.067 217.734 436.384C217.665 438.702 220.113 440.654 223.202 440.745C226.29 440.836 228.849 439.032 228.917 436.714Z" fill="white" fill-opacity="0.5"/>
<path d="M752.685 260.478C755.682 259.728 757.655 257.296 757.092 255.047C756.529 252.798 753.643 251.584 750.646 252.334C747.648 253.085 745.675 255.517 746.238 257.765C746.802 260.014 749.688 261.229 752.685 260.478Z" fill="white" fill-opacity="0.5"/>
<path d="M962.282 162.382C965.279 161.631 967.252 159.2 966.689 156.951C966.126 154.702 963.239 153.487 960.242 154.238C957.245 154.989 955.272 157.42 955.835 159.669C956.399 161.918 959.285 163.132 962.282 162.382Z" fill="white" fill-opacity="0.5"/>
<path d="M579.175 317.383C581.018 316.921 582.232 315.427 581.886 314.046C581.54 312.665 579.765 311.921 577.921 312.383C576.078 312.845 574.864 314.339 575.21 315.72C575.556 317.1 577.331 317.845 579.175 317.383Z" fill="white" fill-opacity="0.5"/>
<path d="M599.599 305.454C602.596 304.703 604.568 302.271 604.005 300.022C603.441 297.773 600.555 296.559 597.558 297.31C594.561 298.062 592.588 300.493 593.152 302.742C593.715 304.991 596.602 306.205 599.599 305.454Z" fill="white" fill-opacity="0.5"/>
<path d="M508.402 145.054C511.399 144.303 513.371 141.871 512.808 139.622C512.244 137.374 509.358 136.16 506.361 136.911C503.364 137.662 501.391 140.094 501.955 142.343C502.518 144.591 505.405 145.805 508.402 145.054Z" fill="white" fill-opacity="0.5"/>
<path d="M521.014 126.882C522.514 126.507 523.503 125.292 523.222 124.17C522.941 123.047 521.496 122.442 519.996 122.818C518.495 123.193 517.507 124.408 517.788 125.53C518.069 126.653 519.513 127.258 521.014 126.882Z" fill="white" fill-opacity="0.5"/>
<path d="M563.142 125.95C564.643 125.574 565.631 124.359 565.35 123.237C565.069 122.114 563.625 121.509 562.124 121.885C560.624 122.261 559.635 123.475 559.916 124.598C560.197 125.72 561.642 126.326 563.142 125.95Z" fill="white" fill-opacity="0.5"/>
<path d="M764.209 415.837C765.849 415.52 766.985 414.266 766.748 413.036C766.51 411.806 764.988 411.066 763.348 411.383C761.708 411.7 760.572 412.954 760.809 414.184C761.047 415.413 762.569 416.154 764.209 415.837Z" fill="white" fill-opacity="0.5"/>
</g>
</g>
<defs>
<linearGradient id="paint0_linear_19_392" x1="695" y1="257.5" x2="684.499" y2="862.5" gradientUnits="userSpaceOnUse">
<stop stop-color="#8823E1"/>
<stop offset="1" stop-color="#C828D7"/>
</linearGradient>
<linearGradient id="paint1_linear_19_392" x1="35.3448" y1="418.616" x2="1947.3" y2="137.961" gradientUnits="userSpaceOnUse">
<stop stop-color="white"/>
<stop offset="1" stop-color="white" stop-opacity="0"/>
</linearGradient>
<linearGradient id="paint2_linear_19_392" x1="15.804" y1="280.181" x2="1432.77" y2="72.1884" gradientUnits="userSpaceOnUse">
<stop stop-color="white"/>
<stop offset="1" stop-color="white" stop-opacity="0"/>
</linearGradient>
<clipPath id="clip0_19_392">
<rect width="1440" height="960" fill="white"/>
</clipPath>
</defs>
</svg>
