<svg width="1440" height="960" viewBox="0 0 1440 960" fill="none" xmlns="http://www.w3.org/2000/svg">
<g clip-path="url(#clip0_19_730)">
<mask id="mask0_19_730" style="mask-type:luminance" maskUnits="userSpaceOnUse" x="0" y="0" width="1440" height="960">
<path d="M1440 0H0V960H1440V0Z" fill="white"/>
</mask>
<g mask="url(#mask0_19_730)">
<path d="M1460.16 634.523V973.442H-26.2656L-25.2648 938.04L-23.9616 891.96L-22.0968 825.914L-20.3112 762.345C-20.3112 762.345 40.6296 759.386 54.0144 760.869C67.3992 762.352 111.982 760.869 111.982 760.869L141.725 759.393L146.815 757.586L180.605 745.641C180.605 745.641 193.738 754.915 198.209 754.915C202.68 754.915 216.043 747.484 216.043 747.484L232.38 748.982L248.738 756.412L278.46 759.386C278.46 759.386 482.112 753.432 496.973 747.484C511.834 741.537 532.649 726.669 532.649 726.669L554.969 708.835L562.363 719.282L577.246 713.349L587.635 722.255L601.02 705.919C601.02 705.919 609.948 716.308 614.405 716.308H630.763L645.624 714.832C645.624 714.832 815.083 680.639 843.329 671.726C871.574 662.812 917.654 646.461 917.654 646.461L931.018 637.533L941.422 641.99L951.84 631.564C951.84 631.564 960.768 637.497 966.701 638.994C972.634 640.492 983.059 638.994 983.059 638.994C983.059 638.994 1131.7 625.61 1167.38 622.636C1203.06 619.662 1460.16 634.523 1460.16 634.523Z" fill="url(#paint0_linear_19_730)"/>
<path style="mix-blend-mode:overlay" opacity="0.5" d="M1460.16 670.322V828.002L1456.88 828.153L-23.9616 891.974L-22.0968 825.929L-20.3112 762.36C-20.3112 762.36 40.6296 759.4 54.0144 760.884C67.3992 762.367 111.982 760.884 111.982 760.884L141.725 759.408L146.815 757.6C198.619 767.356 250.207 776.688 282.895 781.699C370.598 795.084 589.118 775.744 678.298 760.884C767.477 746.023 938.419 682.108 1027.62 677.651C1105.92 673.706 1391.63 670.941 1460.16 670.322Z" fill="url(#paint1_linear_19_730)"/>
<path style="mix-blend-mode:overlay" opacity="0.5" d="M1460.16 677.795V792.11L1456.88 828.168L1452.73 873.845L294.818 940.74L-25.2648 938.033L-23.9616 891.953L-22.0968 825.907L-11.4048 792.067C-11.4048 792.067 195.235 789.093 300.766 798.021C406.296 806.949 571.291 808.411 630.756 800.98C690.221 793.55 852.228 716.596 977.076 699.338C1089.5 683.829 1399.45 678.659 1460.16 677.795Z" fill="url(#paint2_linear_19_730)"/>
<path d="M-29.232 828.758C-29.232 828.758 0.496801 777.228 46.08 788.128C91.6632 799.029 82.7424 824.791 82.7424 824.791C82.7424 824.791 93.6432 815.87 98.5824 823.797C101.91 828.932 105.91 833.599 110.477 837.672C110.477 837.672 116.424 779.208 160.027 783.168C203.63 787.128 202.637 827.764 202.637 827.764C202.637 827.764 218.477 817.857 222.458 825.784C226.44 833.712 234.353 840.652 234.353 840.652C234.353 840.652 260.114 792.096 289.85 802.003C319.586 811.91 347.328 866.414 347.328 866.414C347.328 866.414 369.13 858.494 378.05 891.189C386.971 923.885 354.24 973.442 354.24 973.442L-15.3864 932.813L-29.232 828.758Z" fill="url(#paint3_linear_19_730)"/>
<path d="M845.791 796.056C845.791 796.056 820.029 747.499 848.765 732.631C877.5 717.763 898.315 732.631 898.315 732.631C898.315 732.631 900.295 717.763 910.21 723.71C920.124 729.657 923.09 736.591 923.09 736.591C923.09 736.591 949.846 665.238 973.627 681.093C997.409 696.947 986.508 731.63 986.508 731.63C986.508 731.63 1035.06 732.623 1045.97 740.551C1056.87 748.478 1086.6 763.346 1069.73 801.988C1052.86 840.631 925.985 870.23 925.985 870.23C925.985 870.23 855.698 856.507 845.791 796.056Z" fill="url(#paint4_linear_19_730)"/>
<path d="M1182.24 786.148C1182.24 786.148 1185.21 728.174 1244.67 717.748C1304.13 707.323 1316.02 717.748 1316.02 717.748C1316.02 717.748 1347.24 667.211 1394.81 680.589C1442.38 693.967 1472.1 722.212 1472.1 722.212L1439.4 899.102L1243.17 857.522L1182.24 786.148Z" fill="url(#paint5_linear_19_730)"/>
<path d="M562.817 844.612C562.817 844.612 580.32 800.548 610.43 804.242C640.541 807.936 647.647 836.196 647.647 836.196C647.647 836.196 656.165 830.58 663.53 835.98C668.557 839.819 673.209 844.125 677.426 848.839C677.426 848.839 687.787 815.251 715.082 808.209C742.378 801.168 782.489 819.009 782.489 819.009C782.489 819.009 793.627 860.899 789.797 901.932C785.966 942.965 776.074 956.652 776.074 956.652L416.635 974.076L290.254 958.848C290.254 958.848 290.671 912.105 332.33 898.001C373.99 883.896 386.064 898.879 386.064 898.879C386.064 898.879 377.59 852.799 415.375 839.997C453.161 827.196 498.377 833.683 502.927 841.286C507.478 848.889 509.854 827.837 530.071 832.265C550.289 836.693 562.817 844.612 562.817 844.612Z" fill="url(#paint6_linear_19_730)"/>
</g>
</g>
<defs>
<linearGradient id="paint0_linear_19_730" x1="732.694" y1="901.709" x2="701.474" y2="707.726" gradientUnits="userSpaceOnUse">
<stop stop-color="#A379F7"/>
<stop offset="1" stop-color="#6B0CD0"/>
</linearGradient>
<linearGradient id="paint1_linear_19_730" x1="710.834" y1="719.267" x2="724.874" y2="838.572" gradientUnits="userSpaceOnUse">
<stop stop-color="white"/>
<stop offset="1" stop-color="white" stop-opacity="0"/>
</linearGradient>
<linearGradient id="paint2_linear_19_730" x1="710.957" y1="752.582" x2="725.818" y2="878.928" gradientUnits="userSpaceOnUse">
<stop stop-color="white"/>
<stop offset="1" stop-color="white" stop-opacity="0"/>
</linearGradient>
<linearGradient id="paint3_linear_19_730" x1="170.496" y1="891.629" x2="190.318" y2="799.468" gradientUnits="userSpaceOnUse">
<stop stop-color="#A379F7"/>
<stop offset="1" stop-color="#6B0CD0"/>
</linearGradient>
<linearGradient id="paint4_linear_19_730" x1="960.149" y1="807.547" x2="946.274" y2="705.479" gradientUnits="userSpaceOnUse">
<stop stop-color="#A379F7"/>
<stop offset="1" stop-color="#6B0CD0"/>
</linearGradient>
<linearGradient id="paint5_linear_19_730" x1="1319.99" y1="847.233" x2="1331.29" y2="700.31" gradientUnits="userSpaceOnUse">
<stop stop-color="#A379F7"/>
<stop offset="1" stop-color="#6B0CD0"/>
</linearGradient>
<linearGradient id="paint6_linear_19_730" x1="545.725" y1="941.092" x2="545.371" y2="824.437" gradientUnits="userSpaceOnUse">
<stop stop-color="#A379F7"/>
<stop offset="1" stop-color="#6B0CD0"/>
</linearGradient>
<clipPath id="clip0_19_730">
<rect width="1440" height="960" fill="white"/>
</clipPath>
</defs>
</svg>
