<svg width="1440" height="960" viewBox="0 0 1440 960" fill="none" xmlns="http://www.w3.org/2000/svg">
<g clip-path="url(#clip0_19_965)">
<mask id="mask0_19_965" style="mask-type:luminance" maskUnits="userSpaceOnUse" x="0" y="66" width="1440" height="960">
<path d="M1440 66H0V1026H1440V66Z" fill="white"/>
</mask>
<g mask="url(#mask0_19_965)">
<path d="M1186.68 927.859L1186.58 928.32L1180.65 957.408L1177.27 973.968L1163.2 973.248L1044.92 967.2L963.727 963.053L970.661 931.337L986.501 922.927L1001.36 895.661L1044.47 893.184L1061.81 874.867L1085.57 881.801L1113.84 881.282C1113.84 881.282 1140.11 903.077 1146.04 905.042C1151.97 907.008 1186.68 927.859 1186.68 927.859Z" fill="#21093A"/>
<path d="M1015.98 938.263L994.925 936.521L970.654 931.315L986.515 922.905L1000.87 931.567L1015.98 938.263Z" fill="#3C097A"/>
<path d="M1059.03 895.581L1044.48 893.162L1061.81 874.845L1063.12 884.623L1069.44 899.117L1059.03 895.581Z" fill="#3C097A"/>
<path d="M1075.95 912.307L1042.68 919.565L1020.02 911.94L1021.88 908.412L1017.04 911.004L1001.38 895.639L1044.48 893.162L1051.6 908.599L1075.95 912.307Z" fill="#3C097A"/>
<path d="M1114.96 889.267L1106.04 888.345L1085.6 881.779L1113.85 881.282L1114.96 889.267Z" fill="#3C097A"/>
<path d="M1186.57 928.32L1180.64 957.408L1163.19 973.226L1044.92 967.178L1068.52 940.74L1104.92 948.919L1075.2 930.336L1128.71 921.408L1186.57 928.32Z" fill="#3C0661"/>
<path d="M1448.79 788.121L1446.35 886.56L1444.33 967.488L1277.52 972.982L1259.4 973.579L1190.94 975.826L1158.45 976.898L1096.03 973.925L1126.27 944.686C1126.27 944.686 1157 938.753 1173.36 919.421L1192.17 912.487C1192.17 912.487 1227.36 908.513 1230.33 908.03C1233.3 907.548 1262.55 893.148 1262.55 893.148L1281.87 866.904L1346.78 855.499L1350.26 838.658L1373.53 818.347L1375.03 808.922C1375.03 808.922 1411.2 791.584 1413.19 791.584C1415.17 791.584 1448.79 788.121 1448.79 788.121Z" fill="#21093A"/>
<path d="M1173.31 919.442L1170.34 938.882C1170.34 938.882 1156.95 948.178 1150.27 948.178C1143.59 948.178 1126.23 944.7 1126.23 944.7C1126.23 944.7 1156.95 938.767 1173.31 919.442Z" fill="#3C097A"/>
<path d="M1366.21 905.042L1336.32 900.585L1300.9 898.857L1297.92 896.633L1296.45 898.857L1269.93 897.381L1264.72 908.765L1235.48 910.01L1238.96 913.236L1227.81 912.739L1192.13 912.487C1192.13 912.487 1227.33 908.513 1230.29 908.03C1233.26 907.548 1262.51 893.148 1262.51 893.148L1281.83 866.904L1299.19 886.466L1317.25 886.718C1317.25 886.718 1338.07 896.373 1340.06 896.877C1342.06 897.381 1364.79 904.589 1366.21 905.042Z" fill="#3C097A"/>
<path d="M1420.8 858.242L1379.67 857.99L1346.72 855.513L1350.2 838.672L1364.31 843.129L1391.08 846.837L1420.8 858.242Z" fill="#3C097A"/>
<path d="M1393.55 820.838L1373.47 818.361L1374.96 808.936L1384.12 813.89L1393.55 820.838Z" fill="#3C097A"/>
<path d="M1446.35 886.56L1444.33 967.488L1277.52 972.982C1286.7 961.771 1304.11 939.998 1304.11 939.998L1413.36 954.125L1386.6 940.74L1418.57 933.309L1421.54 893.911L1446.35 886.56Z" fill="#3C0661"/>
<path d="M1311.17 934.051L1374.72 942.223L1332.73 931.445L1311.17 934.051Z" fill="#3C0661"/>
<path d="M1279.58 950.402L1259.38 973.594L1190.92 975.84L1279.58 950.402Z" fill="#3C0661"/>
<path d="M288.367 972.938L238.392 972.384L200.779 971.959L179.388 971.707L-18.3312 969.482L-18.216 959.114L-18.1008 949.034L-18.0432 943.138L-17.6184 905.143L-17.2728 872.945V871.252L-17.0784 853.915L-16.848 832.236L57.9528 839.666L111.463 892.226L150.61 894.206L174.895 900.161L204.617 920.472C204.617 920.472 247.723 934.836 252.173 938.306C256.622 941.777 288.367 972.938 288.367 972.938Z" fill="#21093A"/>
<path d="M111.478 892.183L88.6824 906.547L17.8344 917.952L50.0328 889.209L56.988 888.209L57.9672 839.652L111.478 892.183Z" fill="#3C097A"/>
<path d="M174.91 900.117L142.193 930.336L146.585 911.486L149.76 911.256L147.312 908.383L150.624 894.163L174.91 900.117Z" fill="#3C097A"/>
<path d="M18.8352 848.083L-17.2584 871.238L-17.0712 853.9L6.93362 846.607L18.8352 848.083Z" fill="#3C0661"/>
<path d="M27.7416 852.036L24.768 884.753L-17.6256 905.129L-17.28 872.93L27.7416 852.036Z" fill="#3C0661"/>
<path d="M195.228 944.7L179.388 971.714L-18.3384 969.482L-18.2232 959.114L104.047 919.932L118.922 919.428L101.088 950.647L121.882 926.361L135.763 951.648L195.228 944.7Z" fill="#3C0661"/>
<path d="M44.604 930.336L-18.108 949.02L-18.0504 943.123L44.604 930.336Z" fill="#3C0661"/>
<path d="M238.385 972.384L200.772 971.959L209.088 948.674L238.385 972.384Z" fill="#3C0661"/>
</g>
</g>
<defs>
<clipPath id="clip0_19_965">
<rect width="1440" height="960" fill="white"/>
</clipPath>
</defs>
</svg>
