<?xml version="1.0" encoding="UTF-8"?>
<svg version="1.1" viewBox="0 0 2048 2048" width="512" height="512" xmlns="http://www.w3.org/2000/svg">
<path transform="translate(941,1233)" d="m0 0 6 1 14 6 20 6 24 4h37l24-4 20-6 15-6 6-1 8 12 14 19 12 17 4 6 1 7-1 40-3 34-6 36-6 28-8 29-12 35-12 29-14 29-14 26-15 24-13 19-14 19-14 17-9 11-12 13-9 10-23 23-8 7-12 11-11 9-16 13-19 14-30 20-21 13-29 16-24 12-30 13-35 13-30 9-28 7-25 5h-21l-14-4-10-7-6-7-6-12-4-16-3-28-3-33-3-16-5-14-6-10-8-9-14-9-15-5h-26l-25 5-38 10-5 1h-20l-10-3-10-6-10-9-8-14-3-10-4-39-1-21v-47l2-31 4-35 6-35 8-36 10-35 10-29 12-30 12-26 7-15 8 1 36 12 29 8 26 6 32 6 40 5 42 3h39l35-2 36-4 26-4 4-1-2 5-8 11-1 1-21 2-14 5-11 7-3 1v2l-5 4-9 14-4 10-2 10v18l4 15 7 12 9 10 9 7 13 6 15 3h12l16-4 12-6 10-8 8-10 6-12 3-11 1-8v-9l-3-15-1-6 14-19 10-14 52-72 14-19 12-17 7-10z" fill="#FA6D86"/>
<path transform="translate(502,572)" d="m0 0h29l35 2 39 4 13 2 1 5v47l2 36 4 36 7 41 9 39 8 27 11 33 11 28 11 24 13 25 2 5-11-3-9-4-4-11-7-13-9-10-11-7-11-5-15-3h-11l-14 3-12 5-14 11-8 11-5 10-4 16v15l4 16 7 13 9 10 11 8 10 5 13 3h19l14-4 13-7 5-4 9 2 58 19 44 14 72 24-1 32 2 21 5 23 6 18 6 13 10 19 14 19 4 4v2l3 1 1 4-13 19-12 16-13 18-5 3-27 9-31 8-31 6-34 4-14 1h-66l-29-2-39-5-27-5-30-7-31-9-21-7-32-13-32-15-23-13-17-10-33-22-19-14-16-13-10-8-15-13-15-14-31-31-7-8-13-15-9-11-14-18-13-19-8-11-12-19-14-24-5-13-1-4v-15l4-15 6-9 5-6 15-10 17-8 40-15 15-8 9-8h2l2-4 7-10 5-11 3-13v-20l-4-15-8-15-11-17-16-25-8-16-2-7v-18l4-13 7-11 8-8 15-9 28-12 35-13 29-9 31-8 34-7 32-5 29-3 14-1z" fill="#FA6D86"/>
<path transform="translate(1271,1019)" d="m0 0 16 4 25 9 26 11 25 12 19 10 17 10 15 10 16 11 19 14 13 11 11 9 12 11 8 7 31 31 9 11 10 11 8 10 13 17 13 18 14 19 12 20 13 24 12 27 13 34 12 37 10 38 8 36 6 36 4 31 2 21 1 18v43l-2 25-5 25-5 14-6 11-9 10-9 5-9 3-7 1h-14l-18-3-45-12-14-2h-13l-13 3-14 7-10 8-8 9-7 14-4 17-2 29-3 36-4 15-6 12-9 10-9 6-11 4-4 1h-18l-28-6-31-8-43-14-30-12-20-9-29-14-25-14-26-16-19-13-18-13-16-13-10-8-15-13-13-12-16-15 2-5 12-16 8-11 10-15 13-20 12-20 16-29 15-31 14-34 12-35 10-35 9-42 5-32 4 2 9 12-1 5-3 14v16l4 16 6 11 8 10 12 9 13 6 8 2 15 1 13-2 15-6 11-8 8-8 8-14 4-14 1-7v-9l-3-15-4-9-6-10-9-10-11-7-12-5-8-2-18-1-12-17-13-18-14-19-13-18-14-19-26-36-14-19-5-7 1-5 10-11 12-17 12-23 8-22 5-22 2-14v-43l8-3 45-15z" fill="#FA6D86"/>
<path transform="translate(1521,573)" d="m0 0h25l40 2 46 5 41 7 38 9 27 8 26 9 24 10 21 10 13 9 8 9 7 14 2 8v15l-4 13-8 15-16 25-13 21-6 13-2 9-1 16 3 16 5 12 9 13 10 9 12 7 23 9 26 10 19 10 10 8 7 8 4 8 3 13v11l-3 13-8 16-14 23-10 15-11 16-16 21-11 14-12 14-11 12-7 8-33 33-8 7-15 13-16 13-19 14-17 12-15 10-28 17-27 15-4-1-10-15-10-14-12-16-13-16-9-11-16-17-7-8-19-19-8-7-13-12-11-9-17-14-14-10-18-13-25-16-22-13-27-14-13-7v-2l16-5 5 1 10 7 12 5 10 2h19l16-5 12-7 10-9 9-14 5-16 1-6v-11l-3-15-8-16-9-10-7-6-16-8-7-2-8-1h-11l-15 3-14 7-10 8-8 10-7 14-3 8-8 3-67 22-50 16-52 17-5 1-7-10-7-11-9-11-9-10-9-9-14-11-17-11-16-8-15-6-20-6-9-3v-68l12-16 13-16 8-10 12-14 9-11 14-14 6-7 8-7 10-9 13-10 14-10 15-10 25-16 23-15 24-14 17-9 27-12 29-11 32-10 34-8 34-6 21-3 36-3z" fill="#FA6D86"/>
<path transform="translate(889,169)" d="m0 0 16 1 12 5 9 6 12 12 18 22 11 13 7 8 10 9 16 8 10 3 8 1h14l16-4 14-7 9-7 8-8 8-10 11-13 13-16 9-10 10-7 9-4 11-2 16 1 13 5 8 6 10 9 12 14 11 13 26 34 19 29 8 13 11 19 8 14 8 16 14 30 13 33 12 35 10 37 7 32 3 15v7l-47 15-36 14-35 16-27 14-27 16-17 11-16 11-19 14-16 13-10 8-15 13-16 15-16 16-4 5h-2v-20l5-5 8-6 9-12 5-10 3-13v-21l-4-14-8-14-11-11-14-8-13-4-7-1h-12l-17 4-11 6-10 8-8 10-7 14-3 14v16l4 15 7 13 11 12 8 5 1 2v191l-24 7-21 8-19 10-17 12-13 11-14 14-8 10-16 24-5-1-41-13-17-6-6-5-12-17-10-15-13-21-17-32-13-29-11-30-10-32-9-36-6-31-5-35-3-28-1-16v-44l3-35 5-33 9-41 10-35 10-30 11-28 13-30 12-25 10-19 16-28 12-19 15-22 14-19 13-16 12-13 9-10 10-8 13-6z" fill="#FA6D86"/>
<path transform="translate(475,573)" d="m0 0h23l-1 2-12 2h-8v2l-6 1-3 2-6 2-6-1-3 3h-2l-2 5-4 3 2-1h8v2l9-1 6 4v2l11 1 1 4h-3l1 1 2 1-1 3-4 1v2h8v5l-4 4-3 2-1 6 4 1 6 3 1 2-3 3-2-5-2 5-6 3h-2l-1 7 2 1 4-4 8-1 2 4-1 6-6 12 4-1 1 2-5 6-2 4 4-2 4 2 1 3-1 2h-2v2h-2l-1 6 5 6-1 3-7-3h-8v3l-5-1-1-1-1 2h-2v3l-5 1 1 7 9 5 1 3-5 7-4 3-7 2v7h2v-2h5l1 2v10l-2 1-2-2v-3l-4 2-1 3-5 2-1 2h-3l1 6-5 6-4-2-2 1-1 7 1 7h2l1 2 3-5h2l-1 21 1 5-6 2 2 3h-5l2 4v2l3 5 1 3 2 1v-2l3-1 3 5 3 3 2-4h3l-1 5-2 5h-2l2 6-2 4 4 2-1 8 1 3-1 5 1 4h2l1-3h1l1 13 4 2 3 2v7l1 2 3 1v-2h2l2 9 1 5-3 1v4l5-1v-2l4-1-1 4h-2l-1 2-4 1-1 2h-2l1 3h-4v5h-2v-2h-2l-1-2v-6l5-2-2-4-5 1-3-2-1 7v2l2 6-1 2-4-1-2 2-2 7v3l3 3 1 7 2 4h-2l-1 5 1 4-4 2-1 4 1 2 3 2-4 2 1 5 2 2-3 2v6l2 2-1 4h3l-1-3h5l-1 3 6-2 4-4 5 1v4l5 1 2 3v7h2l2-4 9-2 4-1 1 3-3 1-2 6-2 1 1 5h-2l2 5 4-1 4 3 4 1 1-3 1 3-1 3h-2v5l3 1-1 4h-2v2l-4 1v2l-2 1-1 4 2 5h-2v2h2l3 4 5-1 3-3 5 1 1 4-4-1v9h-2l1 2-1 6h-2l-1 2h-7l-5-4-6 1-4-2-2 8-5-1-2 4h-10l-2 6-6 1v4l4-1 1 10v2l4 2v2l-4 1v9l1 4-1 2h3l2 4-5 3 4 1 1 3 3 1 3 11 2 4-1 2 2 3 3 1v2h4l2 3h7v4h2v3l4 2-9-1-3-1v4l8 2 3 7h-2l-1 2-2 2-1 11 3 6v5l4 2 1 2-6 5-6-2-5-2-4 1v5h-3l-5-1-1-4-4-4-3-1v2h-2l-1 4-4 1-1 2h-3l-1 5h3v-2l4 2 1 4-4 2-9-4v-2l-4-1-2-4h-2l2 3v3l-13-1-1-2-10-3-10-5h-6l4 4v2l4 1 10 7 1 4 3 1-3 1-23-12-27-16-33-22-19-14-16-13-10-8-15-13-15-14-31-31-7-8-13-15-9-11-14-18-13-19-8-11-12-19-14-24-5-13-1-4v-15l4-15 6-9 5-6 15-10 17-8 40-15 15-8 9-8h2l2-4 7-10 5-11 3-13v-20l-4-15-8-15-11-17-16-25-8-16-2-7v-18l4-13 7-11 8-8 15-9 28-12 35-13 29-9 31-8 34-7 32-5 29-3z" fill="#FC988A"/>
<path transform="translate(1017,945)" d="m0 0h12l18 2 21 6 17 8 16 11 17 17 9 13 9 17 6 18 3 17v26l-4 20-5 14-8 16-10 14-12 13-13 10-14 8-14 6-18 5-17 2h-13l-21-3-16-5-11-5-11-6-12-9-10-9-11-14-7-11-7-14-6-20-2-12-1-15 2-19 4-17 7-16 8-14 9-12 7-8 11-9 15-10 17-8 18-5z" fill="#FA6D86"/>
<path transform="translate(436,1303)" d="m0 0 8 1 36 12 29 8 26 6 9 2-3 4-11-1-6-2-2 1h-6l-5-2-5 1-4 1-8-3-3 2h-6l-6-2-5 1-1 3 3 2 9 1 5 8 5 2 3 2 1 4-2 2-9-1v-3l-6-1-2 8h2v-2l4 1 1 3-4 2 1 6-2 6 3 3h3l4-3 2 3-1 3h2l-2 6-4 1-1 4-4 5-2 4h-4l2 6 6-1 2 1-1-3 1-2 4 2 2 6-1 2 3 1-2 4-1-4-4 1-1 5 4-1 2 2-1 3h-2l-1 2 3-1 2 2 4-2 2-3-1 7-3 11v9l-3 7v9l-1 4v7l1 3 2-6-2-5 2-5 3-12 8-8 3-8 4-2v5l-2 5h-2l-1 9 1 2h-2l-1 6-1 4 1 3-1 5 1 6-1 5 1 3-1 6 1 1v8l2 4-1 1v12l-2 12-2 10-6 15 3 1 1-7h2l1-2 3 6-3 5-4 10-2 3-2 13-4 5h1v6l-4-2-8-2v2l4 1-2 7 2 1 3 11 4 6 1 2-2 4-5-3h-4l-1 5 1 4 5-2 3-2 1 4h2l-2 5-8 2-2 6-3 1 2 5 4 2-1 3 1 6h3l1-2h2l4-1 5-1 1-5 3 3-1 4v3 4l-7 2-3 8-4 3v4l-5 2-4 8h-5v2l-6 1-2 4-20 4-8 1-1 3-11-1-9 1-9 3-2 5 6 2 5 4 2 2-1 1h-8l-10-3-10-6-10-9-8-14-3-10-4-39-1-21v-47l2-31 4-35 6-35 8-36 10-35 10-29 12-30 12-26z" fill="#FC988A"/>
<path transform="translate(437,1309)" d="m0 0 6 2 2 5 1 5v3l-4 2-1 2 2 1-7 5-3 3h-3v8l-4 2-5-1-1-4 4-2 1-8 2-10h3l1-5 3 1v-2h2v-6z" fill="#FA6D86"/>
<path transform="translate(553,913)" d="m0 0 1 3-2 10v15l4 16 7 13 9 10 11 8 8 4-2 3-4-1-1-3-4 1-5-5-4-2-3-5v-2h-2l-1-2-2 1v-3h-3l-8-14-4-10-2-7v-9l1-4 4-14z" fill="#FD998B"/>
<path transform="translate(366,1569)" d="m0 0 2 4v15l1 4-1 4h4l1-3-1-3 2-3 1-7 2-1v10l-2 10h2v8l-1 7-5-3v-4h-2l-2 23h-1l-1-8v-47z" fill="#FA7A87"/>
<path transform="translate(376,1579)" d="m0 0h1v10l-2 10h2v8l-1 7-5-3v-4l-3-1 1-3-1-6 4-1 1-3-1-3 2-3 1-7z" fill="#FA7186"/>
<path transform="translate(434,1227)" d="m0 0 6 1 9 6 6 1 2 1v2l9 2 3 5-10-3-26-11-5-2v-1z" fill="#FD998B"/>
<path transform="translate(453,920)" d="m0 0h5l2 2 3-1 6 6v2l2 1-2 4-4 1v-2h-2l-3-7-8-2z" fill="#FC988A"/>
<path transform="translate(513,1487)" d="m0 0h3v7l-1 7-1 6-1 9-2-4-1-5 1-16z" fill="#FD998B"/>
<path transform="translate(460,963)" d="m0 0h3l-1 5 1 2-6 2-2 5-3 1-1-6h3l-1-4 4-3h3z" fill="#FC958A"/>
<path transform="translate(474,911)" d="m0 0 2 2 3 8-1 3h-8l-3-2v-2l4-2 1-6z" fill="#FC978A"/>
<path transform="translate(514,1464)" d="m0 0 4 2-1 5v15l-5-1 1-5h2l-1-11-1-4z" fill="#FC968A"/>
<path transform="translate(425,1326)" d="m0 0h2l-3 15-5 1 3-9z" fill="#FD998B"/>
<path transform="translate(446,1715)" d="m0 0 5 1 4 2-17 4 4-5z" fill="#FD998B"/>
<path transform="translate(470,945)" d="m0 0 2 1 1 3-4 3-4-1-4-3 2-2 5 1z" fill="#FD998B"/>
<path transform="translate(455,815)" d="m0 0h2v5l3 1-1 5-4 2z" fill="#FD998B"/>
<path transform="translate(462,1710)" d="m0 0h3l2 5-11 2 1-4z" fill="#FD998B"/>
<path transform="translate(366,1569)" d="m0 0 2 4v15l1 4h-3z" fill="#FA6F86"/>
<path transform="translate(595,994)" d="m0 0 11 2 16 1v1h-17l-4-1-1 2-5-3z" fill="#FC978A"/>
<path transform="translate(483,981)" d="m0 0 4 1-1 7-6-2v-4z" fill="#FD998B"/>
<path transform="translate(386,1691)" d="m0 0 6 2-2 1 6 10-1 2-5-7v-2l-3-1z" fill="#FA6D86"/>
<path transform="translate(484,1664)" d="m0 0h8l-1 4h-3v2h-2l-1-4-1 2-1-2z" fill="#FA6D86"/>
<path transform="translate(551,1334)" d="m0 0 16 2v1l-11 1z" fill="#FD998B"/>
<path transform="translate(438,874)" d="m0 0h3l1 4-2 4 1 3-3-1z" fill="#FA6D86"/>
<path transform="translate(453,920)" d="m0 0h5l1 4-3 1-4-1z" fill="#FC958A"/>
</svg>
